<svg width="1459" height="998" xmlns="http://www.w3.org/2000/svg" xmlns:xlink="http://www.w3.org/1999/xlink" xml:space="preserve" overflow="hidden"><defs><clipPath id="clip0"><rect x="1291" y="747" width="1459" height="998"/></clipPath></defs><g clip-path="url(#clip0)" transform="translate(-1291 -747)"><path d="M1654.73 748.611 1836.49 748.611 1836.49 911.574 1654.73 911.574Z" fill="#FFFFFF" fill-rule="evenodd"/><path d="M1836.49 748.611 2018.24 748.611 2018.24 911.574 1836.49 911.574Z" fill="#FFFFFF" fill-rule="evenodd"/><path d="M2018.24 748.611 2200 748.611 2200 911.574 2018.24 911.574Z" fill="#FFFFFF" fill-rule="evenodd"/><path d="M2200 748.611 2381.76 748.611 2381.76 911.574 2200 911.574Z" fill="#FFFFFF" fill-rule="evenodd"/><path d="M2381.76 748.611 2563.51 748.611 2563.51 911.574 2381.76 911.574Z" fill="#FFFFFF" fill-rule="evenodd"/><path d="M2563.51 748.611 2745.27 748.611 2745.27 911.574 2563.51 911.574Z" fill="#FFFFFF" fill-rule="evenodd"/><path d="M1654.73 911.574 1836.49 911.574 1836.49 1074.54 1654.73 1074.54Z" fill="#FFFFFF" fill-rule="evenodd"/><path d="M1836.49 911.574 2018.24 911.574 2018.24 1074.54 1836.49 1074.54Z" fill="#FBE5D6" fill-rule="evenodd"/><path d="M2018.24 911.574 2200 911.574 2200 1074.54 2018.24 1074.54Z" fill="#FBE5D6" fill-rule="evenodd"/><path d="M2200 911.574 2381.76 911.574 2381.76 1074.54 2200 1074.54Z" fill="#FBE5D6" fill-rule="evenodd"/><path d="M2381.76 911.574 2563.51 911.574 2563.51 1074.54 2381.76 1074.54Z" fill="#E2F0D9" fill-rule="evenodd"/><path d="M2563.51 911.574 2745.27 911.574 2745.27 1074.54 2563.51 1074.54Z" fill="#E2F0D9" fill-rule="evenodd"/><path d="M1654.73 1074.54 1836.49 1074.54 1836.49 1237.5 1654.73 1237.5Z" fill="#FFFFFF" fill-rule="evenodd"/><path d="M1836.49 1074.54 2018.24 1074.54 2018.24 1237.5 1836.49 1237.5Z" fill="#FBE5D6" fill-rule="evenodd"/><path d="M2018.24 1074.54 2200 1074.54 2200 1237.5 2018.24 1237.5Z" fill="#FBE5D6" fill-rule="evenodd"/><path d="M2200 1074.54 2381.76 1074.54 2381.76 1237.5 2200 1237.5Z" fill="#FBE5D6" fill-rule="evenodd"/><path d="M2381.76 1074.54 2563.51 1074.54 2563.51 1237.5 2381.76 1237.5Z" fill="#E2F0D9" fill-rule="evenodd"/><path d="M2563.51 1074.54 2745.27 1074.54 2745.27 1237.5 2563.51 1237.5Z" fill="#E2F0D9" fill-rule="evenodd"/><path d="M1654.73 1237.5 1836.49 1237.5 1836.49 1400.46 1654.73 1400.46Z" fill="#FFFFFF" fill-rule="evenodd"/><path d="M1836.49 1237.5 2018.24 1237.5 2018.24 1400.46 1836.49 1400.46Z" fill="#FBE5D6" fill-rule="evenodd"/><path d="M2018.24 1237.5 2200 1237.5 2200 1400.46 2018.24 1400.46Z" fill="#FBE5D6" fill-rule="evenodd"/><path d="M2200 1237.5 2381.76 1237.5 2381.76 1400.46 2200 1400.46Z" fill="#FBE5D6" fill-rule="evenodd"/><path d="M2381.76 1237.5 2563.51 1237.5 2563.51 1400.46 2381.76 1400.46Z" fill="#E2F0D9" fill-rule="evenodd"/><path d="M2563.51 1237.5 2745.27 1237.5 2745.27 1400.46 2563.51 1400.46Z" fill="#E2F0D9" fill-rule="evenodd"/><path d="M1654.73 1400.46 1836.49 1400.46 1836.49 1563.43 1654.73 1563.43Z" fill="#FFFFFF" fill-rule="evenodd"/><path d="M1836.49 1400.46 2018.24 1400.46 2018.24 1563.43 1836.49 1563.43Z" fill="#E2F0D9" fill-rule="evenodd"/><path d="M2018.24 1400.46 2200 1400.46 2200 1563.43 2018.24 1563.43Z" fill="#E2F0D9" fill-rule="evenodd"/><path d="M2200 1400.46 2381.76 1400.46 2381.76 1563.43 2200 1563.43Z" fill="#E2F0D9" fill-rule="evenodd"/><path d="M2381.76 1400.46 2563.51 1400.46 2563.51 1563.43 2381.76 1563.43Z" fill="#FBE5D6" fill-rule="evenodd"/><path d="M2563.51 1400.46 2745.27 1400.46 2745.27 1563.43 2563.51 1563.43Z" fill="#FBE5D6" fill-rule="evenodd"/><path d="M1654.73 1563.43 1836.49 1563.43 1836.49 1726.39 1654.73 1726.39Z" fill="#FFFFFF" fill-rule="evenodd"/><path d="M1836.49 1563.43 2018.24 1563.43 2018.24 1726.39 1836.49 1726.39Z" fill="#E2F0D9" fill-rule="evenodd"/><path d="M2018.24 1563.43 2200 1563.43 2200 1726.39 2018.24 1726.39Z" fill="#E2F0D9" fill-rule="evenodd"/><path d="M2200 1563.43 2381.76 1563.43 2381.76 1726.39 2200 1726.39Z" fill="#E2F0D9" fill-rule="evenodd"/><path d="M2381.76 1563.43 2563.51 1563.43 2563.51 1726.39 2381.76 1726.39Z" fill="#FBE5D6" fill-rule="evenodd"/><path d="M2563.51 1563.43 2745.27 1563.43 2745.27 1726.39 2563.51 1726.39Z" fill="#FBE5D6" fill-rule="evenodd"/><path d="M1836.49 909.282 1836.49 1728.68" stroke="#000000" stroke-width="4.58333" stroke-linejoin="round" stroke-miterlimit="10" fill="none" fill-rule="evenodd"/><path d="M2018.24 909.282 2018.24 1728.68" stroke="#000000" stroke-width="4.58333" stroke-linejoin="round" stroke-miterlimit="10" fill="none" fill-rule="evenodd"/><path d="M2200 909.282 2200 1728.68" stroke="#000000" stroke-width="4.58333" stroke-linejoin="round" stroke-miterlimit="10" fill="none" fill-rule="evenodd"/><path d="M2381.76 909.282 2381.76 1728.68" stroke="#000000" stroke-width="4.58333" stroke-linejoin="round" stroke-miterlimit="10" fill="none" fill-rule="evenodd"/><path d="M2563.51 909.282 2563.51 1728.68" stroke="#000000" stroke-width="4.58333" stroke-linejoin="round" stroke-miterlimit="10" fill="none" fill-rule="evenodd"/><path d="M1834.2 911.574 2747.56 911.574" stroke="#000000" stroke-width="4.58333" stroke-linejoin="round" stroke-miterlimit="10" fill="none" fill-rule="evenodd"/><path d="M1834.2 1074.54 2747.56 1074.54" stroke="#000000" stroke-width="4.58333" stroke-linejoin="round" stroke-miterlimit="10" fill="none" fill-rule="evenodd"/><path d="M1834.2 1237.5 2747.56 1237.5" stroke="#000000" stroke-width="4.58333" stroke-linejoin="round" stroke-miterlimit="10" fill="none" fill-rule="evenodd"/><path d="M1834.2 1400.46 2747.56 1400.46" stroke="#000000" stroke-width="4.58333" stroke-linejoin="round" stroke-miterlimit="10" fill="none" fill-rule="evenodd"/><path d="M1834.2 1563.43 2747.56 1563.43" stroke="#000000" stroke-width="4.58333" stroke-linejoin="round" stroke-miterlimit="10" fill="none" fill-rule="evenodd"/><path d="M2745.27 909.282 2745.27 1728.68" stroke="#000000" stroke-width="4.58333" stroke-linejoin="round" stroke-miterlimit="10" fill="none" fill-rule="evenodd"/><path d="M1834.2 1726.39 2747.56 1726.39" stroke="#000000" stroke-width="4.58333" stroke-linejoin="round" stroke-miterlimit="10" fill="none" fill-rule="evenodd"/><path d="M1655.23 749.11 1837.23 912.111" stroke="#000000" stroke-width="4.58333" stroke-linejoin="round" stroke-miterlimit="10" fill="none" fill-rule="evenodd"/><text font-family="Calibri,Calibri_MSFontService,sans-serif" font-weight="400" font-size="83" transform="matrix(1 0 0 1 1906.51 858)">1<tspan font-size="83" x="181.756" y="0">3</tspan><tspan font-size="83" x="363.512" y="0">5</tspan><tspan font-size="83" x="545.269" y="0">2</tspan><tspan font-size="83" x="727.025" y="0">4</tspan><tspan font-size="83" x="-181.756" y="163">1</tspan><tspan font-size="83" x="0" y="163">0</tspan><tspan font-size="83" x="181.756" y="163">0</tspan><tspan font-size="83" x="363.512" y="163">0</tspan><tspan font-size="83" x="545.269" y="163">1</tspan><tspan font-size="83" x="727.025" y="163">1</tspan><tspan font-size="83" x="-181.756" y="326">3</tspan><tspan font-size="83" x="0" y="326">0</tspan><tspan font-size="83" x="181.756" y="326">0</tspan><tspan font-size="83" x="363.512" y="326">0</tspan><tspan font-size="83" x="545.269" y="326">0</tspan><tspan font-size="83" x="727.025" y="326">0</tspan><tspan font-size="83" x="-181.756" y="488">5</tspan><tspan font-size="83" x="0" y="488">0</tspan><tspan font-size="83" x="181.756" y="488">0</tspan><tspan font-size="83" x="363.512" y="488">0</tspan><tspan font-size="83" x="545.269" y="488">1</tspan><tspan font-size="83" x="727.025" y="488">0</tspan><tspan font-size="83" x="-181.756" y="651">2</tspan><tspan font-size="83" x="0" y="651">1</tspan><tspan font-size="83" x="181.756" y="651">0</tspan><tspan font-size="83" x="363.512" y="651">1</tspan><tspan font-size="83" x="545.269" y="651">0</tspan><tspan font-size="83" x="727.025" y="651">0</tspan><tspan font-size="83" x="-181.756" y="814">4</tspan><tspan font-size="83" x="0" y="814">1</tspan><tspan font-size="83" x="181.756" y="814">0</tspan><tspan font-size="83" x="363.512" y="814">0</tspan><tspan font-size="83" x="545.269" y="814">0</tspan><tspan font-size="83" x="727.025" y="814">0</tspan></text><path d="M1664 1390C1635.28 1390 1612 1386.12 1612 1381.33L1612 1165.17C1612 1160.38 1588.72 1156.5 1560 1156.5 1588.72 1156.5 1612 1152.62 1612 1147.83L1612 931.666C1612 926.88 1635.28 923 1664 923" stroke="#000000" stroke-width="2.29167" stroke-miterlimit="8" fill="none" fill-rule="evenodd"/><path d="M1664 1726C1634.45 1726 1610.5 1722.01 1610.5 1717.08L1610.5 1570.42C1610.5 1565.49 1586.55 1561.5 1557 1561.5 1586.55 1561.5 1610.5 1557.51 1610.5 1552.58L1610.5 1405.92C1610.5 1400.99 1634.45 1397 1664 1397" stroke="#000000" stroke-width="2.29167" stroke-miterlimit="8" fill="none" fill-rule="evenodd"/><text font-family="Times New Roman,Times New Roman_MSFontService,sans-serif" font-style="italic" font-weight="400" font-size="128" transform="matrix(1 0 0 1 1368.7 1214)">V<tspan font-style="normal" font-size="86" x="78" y="31">1</tspan><tspan font-size="128" x="0" y="397">V</tspan><tspan font-size="86" x="78" y="428">2</tspan></text></g></svg>