<svg width="1547" height="1019" xmlns="http://www.w3.org/2000/svg" xmlns:xlink="http://www.w3.org/1999/xlink" xml:space="preserve" overflow="hidden"><defs><clipPath id="clip0"><rect x="981" y="566" width="1547" height="1019"/></clipPath></defs><g clip-path="url(#clip0)" transform="translate(-981 -566)"><path d="M1158.5 1096C1158.5 827.313 1278.26 609.5 1426 609.5 1573.74 609.5 1693.5 827.313 1693.5 1096 1693.5 1364.69 1573.74 1582.5 1426 1582.5 1278.26 1582.5 1158.5 1364.69 1158.5 1096Z" stroke="#000000" stroke-width="4.58333" stroke-miterlimit="8" stroke-dasharray="18.3333 13.75" fill="none" fill-rule="evenodd"/><path d="M1990.5 1109.5C1990.5 917.305 2110.26 761.5 2258 761.5 2405.74 761.5 2525.5 917.305 2525.5 1109.5 2525.5 1301.7 2405.74 1457.5 2258 1457.5 2110.26 1457.5 1990.5 1301.7 1990.5 1109.5Z" stroke="#000000" stroke-width="4.58333" stroke-miterlimit="8" stroke-dasharray="18.3333 13.75" fill="none" fill-rule="evenodd"/><path d="M1347.5 836.5C1347.5 798.945 1378.17 768.5 1416 768.5 1453.83 768.5 1484.5 798.945 1484.5 836.5 1484.5 874.055 1453.83 904.5 1416 904.5 1378.17 904.5 1347.5 874.055 1347.5 836.5Z" stroke="#000000" stroke-width="9.16667" stroke-miterlimit="8" fill="none" fill-rule="evenodd"/><text font-family="Calibri,Calibri_MSFontService,sans-serif" font-weight="400" font-size="83" transform="matrix(1 0 0 1 1394.88 864)">1</text><path d="M1279.5 1094C1279.5 1056.17 1310.17 1025.5 1348 1025.5 1385.83 1025.5 1416.5 1056.17 1416.5 1094 1416.5 1131.83 1385.83 1162.5 1348 1162.5 1310.17 1162.5 1279.5 1131.83 1279.5 1094Z" stroke="#000000" stroke-width="9.16667" stroke-miterlimit="8" fill="none" fill-rule="evenodd"/><text font-family="Calibri,Calibri_MSFontService,sans-serif" font-weight="400" font-size="83" transform="matrix(1 0 0 1 1326.46 1121)">3</text><path d="M2189.5 1222C2189.5 1184.17 2220.17 1153.5 2258 1153.5 2295.83 1153.5 2326.5 1184.17 2326.5 1222 2326.5 1259.83 2295.83 1290.5 2258 1290.5 2220.17 1290.5 2189.5 1259.83 2189.5 1222Z" stroke="#000000" stroke-width="9.16667" stroke-miterlimit="8" fill="none" fill-rule="evenodd"/><text font-family="Calibri,Calibri_MSFontService,sans-serif" font-weight="400" font-size="83" transform="matrix(1 0 0 1 2236.36 1249)">4</text><path d="M2189.5 926C2189.5 888.169 2220.17 857.5 2258 857.5 2295.83 857.5 2326.5 888.169 2326.5 926 2326.5 963.832 2295.83 994.5 2258 994.5 2220.17 994.5 2189.5 963.832 2189.5 926Z" stroke="#000000" stroke-width="9.16667" stroke-miterlimit="8" fill="none" fill-rule="evenodd"/><text font-family="Calibri,Calibri_MSFontService,sans-serif" font-weight="400" font-size="83" transform="matrix(1 0 0 1 2236.36 953)">2</text><path d="M1321.5 1373C1321.5 1335.17 1352.17 1304.5 1390 1304.5 1427.83 1304.5 1458.5 1335.17 1458.5 1373 1458.5 1410.83 1427.83 1441.5 1390 1441.5 1352.17 1441.5 1321.5 1410.83 1321.5 1373Z" stroke="#000000" stroke-width="9.16667" stroke-miterlimit="8" fill="none" fill-rule="evenodd"/><text font-family="Calibri,Calibri_MSFontService,sans-serif" font-weight="400" font-size="83" transform="matrix(1 0 0 1 1368.43 1400)">5</text><path d="M1484.5 836.5 2189.15 926.07" stroke="#000000" stroke-width="9.16667" stroke-miterlimit="8" fill="none" fill-rule="evenodd"/><path d="M0 0 731.096 447.172" stroke="#000000" stroke-width="9.16667" stroke-miterlimit="8" fill="none" fill-rule="evenodd" transform="matrix(-1 0 0 1 2189.6 926.5)"/><path d="M1484.5 836.5 2189.15 1222.27" stroke="#000000" stroke-width="9.16667" stroke-miterlimit="8" fill="none" fill-rule="evenodd"/><text font-family="Times New Roman,Times New Roman_MSFontService,sans-serif" font-style="italic" font-weight="400" font-size="128" transform="matrix(1 0 0 1 1058.83 729)">V<tspan font-style="normal" font-size="86" x="78" y="31">1</tspan><tspan font-size="128" x="914.196" y="21">V</tspan><tspan font-size="86" x="992.196" y="52">2</tspan></text></g></svg>