<svg width="2528" height="430" xmlns="http://www.w3.org/2000/svg" xmlns:xlink="http://www.w3.org/1999/xlink" xml:space="preserve" overflow="hidden"><defs><clipPath id="clip0"><rect x="1103" y="494" width="2528" height="430"/></clipPath></defs><g clip-path="url(#clip0)" transform="translate(-1103 -494)"><path d="M3291.5 579C3291.5 541.169 3322.17 510.5 3360 510.5 3397.83 510.5 3428.5 541.169 3428.5 579 3428.5 616.832 3397.83 647.5 3360 647.5 3322.17 647.5 3291.5 616.832 3291.5 579Z" stroke="#000000" stroke-width="9.16667" stroke-miterlimit="8" fill="none" fill-rule="evenodd"/><text font-family="Calibri,Calibri_MSFontService,sans-serif" font-weight="400" font-size="83" transform="matrix(1 0 0 1 3338.34 606)">1</text><path d="M3489.5 825C3489.5 787.169 3520.17 756.5 3558 756.5 3595.83 756.5 3626.5 787.169 3626.5 825 3626.5 862.831 3595.83 893.5 3558 893.5 3520.17 893.5 3489.5 862.831 3489.5 825Z" stroke="#000000" stroke-width="9.16667" stroke-miterlimit="8" fill="none" fill-rule="evenodd"/><text font-family="Calibri,Calibri_MSFontService,sans-serif" font-weight="400" font-size="83" transform="matrix(1 0 0 1 3536.53 852)">3</text><path d="M3093.5 825C3093.5 787.169 3123.94 756.5 3161.5 756.5 3199.06 756.5 3229.5 787.169 3229.5 825 3229.5 862.831 3199.06 893.5 3161.5 893.5 3123.94 893.5 3093.5 862.831 3093.5 825Z" stroke="#000000" stroke-width="9.16667" stroke-miterlimit="8" fill="none" fill-rule="evenodd"/><text font-family="Calibri,Calibri_MSFontService,sans-serif" font-weight="400" font-size="83" transform="matrix(1 0 0 1 3140.15 852)">2</text><path d="M0 0 101.437 148.998" stroke="#000000" stroke-width="9.16667" stroke-miterlimit="8" fill="none" fill-rule="evenodd" transform="matrix(-1 0 0 1 3310.94 627.5)"/><path d="M3229.5 824.5 3489.05 824.501" stroke="#000000" stroke-width="9.16667" stroke-miterlimit="8" fill="none" fill-rule="evenodd"/><path d="M3408.5 627.5 3509.94 776.497" stroke="#000000" stroke-width="9.16667" stroke-miterlimit="8" fill="none" fill-rule="evenodd"/><path d="M1305.5 578C1305.5 540.168 1336.17 509.5 1374 509.5 1411.83 509.5 1442.5 540.168 1442.5 578 1442.5 615.832 1411.83 646.5 1374 646.5 1336.17 646.5 1305.5 615.832 1305.5 578Z" stroke="#000000" stroke-width="9.16667" stroke-miterlimit="8" fill="none" fill-rule="evenodd"/><text font-family="Calibri,Calibri_MSFontService,sans-serif" font-weight="400" font-size="83" transform="matrix(1 0 0 1 1352.98 605)">1</text><path d="M1504.5 823C1504.5 785.169 1534.94 754.5 1572.5 754.5 1610.06 754.5 1640.5 785.169 1640.5 823 1640.5 860.831 1610.06 891.5 1572.5 891.5 1534.94 891.5 1504.5 860.831 1504.5 823Z" stroke="#000000" stroke-width="9.16667" stroke-miterlimit="8" fill="none" fill-rule="evenodd"/><text font-family="Calibri,Calibri_MSFontService,sans-serif" font-weight="400" font-size="83" transform="matrix(1 0 0 1 1551.17 850)">3</text><path d="M1107.5 823C1107.5 785.169 1138.17 754.5 1176 754.5 1213.83 754.5 1244.5 785.169 1244.5 823 1244.5 860.831 1213.83 891.5 1176 891.5 1138.17 891.5 1107.5 860.831 1107.5 823Z" stroke="#000000" stroke-width="9.16667" stroke-miterlimit="8" fill="none" fill-rule="evenodd"/><text font-family="Calibri,Calibri_MSFontService,sans-serif" font-weight="400" font-size="83" transform="matrix(1 0 0 1 1154.79 850)">2</text><path d="M0 0 101.437 148.998" stroke="#000000" stroke-width="9.16667" stroke-miterlimit="8" fill="none" fill-rule="evenodd" transform="matrix(-1 0 0 1 1325.94 626.5)"/><path d="M1244.5 823.5 1504.05 823.5" stroke="#000000" stroke-width="9.16667" stroke-miterlimit="8" fill="none" fill-rule="evenodd"/><path d="M1940.5 572C1940.5 534.169 1971.17 503.5 2009 503.5 2046.83 503.5 2077.5 534.169 2077.5 572 2077.5 609.831 2046.83 640.5 2009 640.5 1971.17 640.5 1940.5 609.831 1940.5 572Z" stroke="#000000" stroke-width="9.16667" stroke-miterlimit="8" fill="none" fill-rule="evenodd"/><text font-family="Calibri,Calibri_MSFontService,sans-serif" font-weight="400" font-size="83" transform="matrix(1 0 0 1 1987.49 599)">1</text><path d="M2138.5 818C2138.5 780.168 2169.17 749.5 2207 749.5 2244.83 749.5 2275.5 780.168 2275.5 818 2275.5 855.831 2244.83 886.5 2207 886.5 2169.17 886.5 2138.5 855.831 2138.5 818Z" stroke="#000000" stroke-width="9.16667" stroke-miterlimit="8" fill="none" fill-rule="evenodd"/><text font-family="Calibri,Calibri_MSFontService,sans-serif" font-weight="400" font-size="83" transform="matrix(1 0 0 1 2185.68 845)">3</text><path d="M1742.5 818C1742.5 780.168 1773.17 749.5 1811 749.5 1848.83 749.5 1879.5 780.168 1879.5 818 1879.5 855.831 1848.83 886.5 1811 886.5 1773.17 886.5 1742.5 855.831 1742.5 818Z" stroke="#000000" stroke-width="9.16667" stroke-miterlimit="8" fill="none" fill-rule="evenodd"/><text font-family="Calibri,Calibri_MSFontService,sans-serif" font-weight="400" font-size="83" transform="matrix(1 0 0 1 1789.3 845)">2</text><path d="M0 0 101.437 148.998" stroke="#000000" stroke-width="9.16667" stroke-miterlimit="8" fill="none" fill-rule="evenodd" transform="matrix(-1 0 0 1 1960.94 620.5)"/><path d="M2057.5 620.5 2158.94 769.498" stroke="#000000" stroke-width="9.16667" stroke-miterlimit="8" fill="none" fill-rule="evenodd"/><path d="M2615.5 571C2615.5 533.169 2646.17 502.5 2684 502.5 2721.83 502.5 2752.5 533.169 2752.5 571 2752.5 608.831 2721.83 639.5 2684 639.5 2646.17 639.5 2615.5 608.831 2615.5 571Z" stroke="#000000" stroke-width="9.16667" stroke-miterlimit="8" fill="none" fill-rule="evenodd"/><text font-family="Calibri,Calibri_MSFontService,sans-serif" font-weight="400" font-size="83" transform="matrix(1 0 0 1 2662.25 598)">1</text><path d="M2813.5 817C2813.5 779.168 2844.17 748.5 2882 748.5 2919.83 748.5 2950.5 779.168 2950.5 817 2950.5 854.831 2919.83 885.5 2882 885.5 2844.17 885.5 2813.5 854.831 2813.5 817Z" stroke="#000000" stroke-width="9.16667" stroke-miterlimit="8" fill="none" fill-rule="evenodd"/><text font-family="Calibri,Calibri_MSFontService,sans-serif" font-weight="400" font-size="83" transform="matrix(1 0 0 1 2860.44 844)">3</text><path d="M2417.5 817C2417.5 779.168 2447.94 748.5 2485.5 748.5 2523.06 748.5 2553.5 779.168 2553.5 817 2553.5 854.831 2523.06 885.5 2485.5 885.5 2447.94 885.5 2417.5 854.831 2417.5 817Z" stroke="#000000" stroke-width="9.16667" stroke-miterlimit="8" fill="none" fill-rule="evenodd"/><text font-family="Calibri,Calibri_MSFontService,sans-serif" font-weight="400" font-size="83" transform="matrix(1 0 0 1 2464.06 844)">2</text><path d="M2553.5 816.5 2813.05 816.5" stroke="#000000" stroke-width="9.16667" stroke-miterlimit="8" fill="none" fill-rule="evenodd"/><path d="M2732.5 619.5 2833.94 768.498" stroke="#000000" stroke-width="9.16667" stroke-miterlimit="8" fill="none" fill-rule="evenodd"/></g></svg>