<svg width="873" height="717" xmlns="http://www.w3.org/2000/svg" xmlns:xlink="http://www.w3.org/1999/xlink" xml:space="preserve" overflow="hidden"><defs><clipPath id="clip0"><rect x="1343" y="760" width="873" height="717"/></clipPath></defs><g clip-path="url(#clip0)" transform="translate(-1343 -760)"><path d="M1347.5 836.5C1347.5 798.945 1378.17 768.5 1416 768.5 1453.83 768.5 1484.5 798.945 1484.5 836.5 1484.5 874.055 1453.83 904.5 1416 904.5 1378.17 904.5 1347.5 874.055 1347.5 836.5Z" stroke="#000000" stroke-width="9.16667" stroke-miterlimit="8" fill="none" fill-rule="evenodd"/><text font-family="Calibri,Calibri_MSFontService,sans-serif" font-weight="400" font-size="83" transform="matrix(1 0 0 1 1394.88 864)">1</text><path d="M1347.5 1098C1347.5 1060.17 1378.17 1029.5 1416 1029.5 1453.83 1029.5 1484.5 1060.17 1484.5 1098 1484.5 1135.83 1453.83 1166.5 1416 1166.5 1378.17 1166.5 1347.5 1135.83 1347.5 1098Z" stroke="#000000" stroke-width="9.16667" stroke-miterlimit="8" fill="none" fill-rule="evenodd"/><text font-family="Calibri,Calibri_MSFontService,sans-serif" font-weight="400" font-size="83" transform="matrix(1 0 0 1 1394.88 1125)">3</text><path d="M2063.5 1243.5C2063.5 1205.94 2094.17 1175.5 2132 1175.5 2169.83 1175.5 2200.5 1205.94 2200.5 1243.5 2200.5 1281.06 2169.83 1311.5 2132 1311.5 2094.17 1311.5 2063.5 1281.06 2063.5 1243.5Z" stroke="#000000" stroke-width="9.16667" stroke-miterlimit="8" fill="none" fill-rule="evenodd"/><text font-family="Calibri,Calibri_MSFontService,sans-serif" font-weight="400" font-size="83" transform="matrix(1 0 0 1 2110.67 1271)">4</text><path d="M2074.5 967C2074.5 929.169 2105.17 898.5 2143 898.5 2180.83 898.5 2211.5 929.169 2211.5 967 2211.5 1004.83 2180.83 1035.5 2143 1035.5 2105.17 1035.5 2074.5 1004.83 2074.5 967Z" stroke="#000000" stroke-width="9.16667" stroke-miterlimit="8" fill="none" fill-rule="evenodd"/><text font-family="Calibri,Calibri_MSFontService,sans-serif" font-weight="400" font-size="83" transform="matrix(1 0 0 1 2121.82 994)">2</text><path d="M1347.5 1378C1347.5 1340.17 1378.17 1309.5 1416 1309.5 1453.83 1309.5 1484.5 1340.17 1484.5 1378 1484.5 1415.83 1453.83 1446.5 1416 1446.5 1378.17 1446.5 1347.5 1415.83 1347.5 1378Z" stroke="#000000" stroke-width="9.16667" stroke-miterlimit="8" fill="none" fill-rule="evenodd"/><text font-family="Calibri,Calibri_MSFontService,sans-serif" font-weight="400" font-size="83" transform="matrix(1 0 0 1 1394.88 1405)">5</text><path d="M1484.5 836.5 2074.61 967.15" stroke="#000000" stroke-width="9.16667" stroke-miterlimit="8" fill="none" fill-rule="evenodd"/><path d="M0 0 590.109 410.436" stroke="#000000" stroke-width="9.16667" stroke-miterlimit="8" fill="none" fill-rule="evenodd" transform="matrix(-1 0 0 1 2074.61 967.5)"/><path d="M1484.5 836.5 2063.47 1243.49" stroke="#000000" stroke-width="9.16667" stroke-miterlimit="8" fill="none" fill-rule="evenodd"/><path d="M0 0 590.109 130.651" stroke="#000000" stroke-width="9.16667" stroke-miterlimit="8" fill="none" fill-rule="evenodd" transform="matrix(-1 0 0 1 2074.61 967.5)"/><path d="M2063.47 1243.19 1484.5 1097.5" stroke="#000000" stroke-width="9.16667" stroke-miterlimit="8" fill="none" fill-rule="evenodd"/><path d="M0 0 578.966 134.097" stroke="#000000" stroke-width="9.16667" stroke-miterlimit="8" fill="none" fill-rule="evenodd" transform="matrix(-1 0 0 1 2063.47 1243.5)"/></g></svg>