<svg width="1247" height="1113" xmlns="http://www.w3.org/2000/svg" xmlns:xlink="http://www.w3.org/1999/xlink" xml:space="preserve" overflow="hidden"><defs><clipPath id="clip0"><rect x="1020" y="556" width="1247" height="1113"/></clipPath></defs><g clip-path="url(#clip0)" transform="translate(-1020 -556)"><path d="M1058.5 1069C1058.5 1031.17 1089.17 1000.5 1127 1000.5 1164.83 1000.5 1195.5 1031.17 1195.5 1069 1195.5 1106.83 1164.83 1137.5 1127 1137.5 1089.17 1137.5 1058.5 1106.83 1058.5 1069Z" stroke="#000000" stroke-width="9.16667" stroke-miterlimit="8" fill="#BFBFBF" fill-rule="evenodd"/><text font-family="Calibri,Calibri_MSFontService,sans-serif" font-weight="400" font-size="83" transform="matrix(1 0 0 1 1105.4 1096)">1</text><path d="M1382.5 977C1382.5 939.169 1412.94 908.5 1450.5 908.5 1488.06 908.5 1518.5 939.169 1518.5 977 1518.5 1014.83 1488.06 1045.5 1450.5 1045.5 1412.94 1045.5 1382.5 1014.83 1382.5 977Z" stroke="#000000" stroke-width="9.16667" stroke-miterlimit="8" fill="none" fill-rule="evenodd"/><text font-family="Calibri,Calibri_MSFontService,sans-serif" font-weight="400" font-size="83" transform="matrix(1 0 0 1 1429.3 1004)">*</text><path d="M1822.5 1302C1822.5 1264.17 1852.5 1233.5 1889.5 1233.5 1926.5 1233.5 1956.5 1264.17 1956.5 1302 1956.5 1339.83 1926.5 1370.5 1889.5 1370.5 1852.5 1370.5 1822.5 1339.83 1822.5 1302Z" stroke="#000000" stroke-width="9.16667" stroke-miterlimit="8" fill="none" fill-rule="evenodd"/><text font-family="Calibri,Calibri_MSFontService,sans-serif" font-weight="400" font-size="83" transform="matrix(1 0 0 1 1868.35 1329)">*</text><path d="M1088.5 1373.5C1088.5 1335.94 1119.17 1305.5 1157 1305.5 1194.83 1305.5 1225.5 1335.94 1225.5 1373.5 1225.5 1411.06 1194.83 1441.5 1157 1441.5 1119.17 1441.5 1088.5 1411.06 1088.5 1373.5Z" stroke="#000000" stroke-width="9.16667" stroke-miterlimit="8" fill="none" fill-rule="evenodd"/><text font-family="Calibri,Calibri_MSFontService,sans-serif" font-weight="400" font-size="83" transform="matrix(1 0 0 1 1135.9 1400)">*</text><path d="M1822.5 941C1822.5 903.168 1852.5 872.5 1889.5 872.5 1926.5 872.5 1956.5 903.168 1956.5 941 1956.5 978.832 1926.5 1009.5 1889.5 1009.5 1852.5 1009.5 1822.5 978.832 1822.5 941Z" stroke="#000000" stroke-width="9.16667" stroke-miterlimit="8" fill="none" fill-rule="evenodd"/><text font-family="Calibri,Calibri_MSFontService,sans-serif" font-weight="400" font-size="83" transform="matrix(1 0 0 1 1868.35 968)">*</text><path d="M1498.5 1025.5 1539.48 1191.68" stroke="#000000" stroke-width="9.16667" stroke-miterlimit="8" fill="none" fill-rule="evenodd"/><path d="M0 0 206.826 43.2699" stroke="#000000" stroke-width="9.16667" stroke-miterlimit="8" fill="none" fill-rule="evenodd" transform="matrix(1 0 0 -1 1175.5 1020.77)"/><path d="M1156.72 1305.33 1126.5 1137.5" stroke="#000000" stroke-width="9.16667" stroke-miterlimit="8" fill="none" fill-rule="evenodd"/><path d="M0 0 0.000360892 224.179" stroke="#000000" stroke-width="9.16667" stroke-miterlimit="8" stroke-dasharray="36.6667 27.5" fill="none" fill-rule="evenodd" transform="matrix(1 0 0 -1 1889.5 1233.68)"/><path d="M0 0 245.929 113.336" stroke="#000000" stroke-width="9.16667" stroke-miterlimit="8" fill="none" fill-rule="evenodd" transform="matrix(-1 0 0 1 1471.43 1260.5)"/><path d="M1471.5 1260C1471.5 1222.17 1502.17 1191.5 1540 1191.5 1577.83 1191.5 1608.5 1222.17 1608.5 1260 1608.5 1297.83 1577.83 1328.5 1540 1328.5 1502.17 1328.5 1471.5 1297.83 1471.5 1260Z" stroke="#000000" stroke-width="9.16667" stroke-miterlimit="8" fill="none" fill-rule="evenodd"/><text font-family="Calibri,Calibri_MSFontService,sans-serif" font-weight="400" font-size="83" transform="matrix(1 0 0 1 1518.66 1287)">*</text><path d="M1236.5 1185C1236.5 1147.17 1267.17 1116.5 1305 1116.5 1342.83 1116.5 1373.5 1147.17 1373.5 1185 1373.5 1222.83 1342.83 1253.5 1305 1253.5 1267.17 1253.5 1236.5 1222.83 1236.5 1185Z" stroke="#000000" stroke-width="9.16667" stroke-miterlimit="8" fill="none" fill-rule="evenodd"/><text font-family="Calibri,Calibri_MSFontService,sans-serif" font-weight="400" font-size="83" transform="matrix(1 0 0 1 1283.9 1212)">*</text><path d="M0 0 51.2431 91.3855" stroke="#000000" stroke-width="9.16667" stroke-miterlimit="8" fill="none" fill-rule="evenodd" transform="matrix(-1 0 0 1 1256.74 1233.5)"/><text font-family="Calibri,Calibri_MSFontService,sans-serif" font-weight="400" font-size="128" transform="matrix(1 0 0 1 1407.38 1558)">⁞</text><path d="M0 0 152.005 111.408" stroke="#000000" stroke-width="9.16667" stroke-miterlimit="8" stroke-dasharray="36.6667 27.5" fill="none" fill-rule="evenodd" transform="matrix(1 0 0 -1 1936.5 1253.91)"/><path d="M2069.5 1094C2069.5 1056.17 2099.5 1025.5 2136.5 1025.5 2173.5 1025.5 2203.5 1056.17 2203.5 1094 2203.5 1131.83 2173.5 1162.5 2136.5 1162.5 2099.5 1162.5 2069.5 1131.83 2069.5 1094Z" stroke="#000000" stroke-width="9.16667" stroke-miterlimit="8" fill="none" fill-rule="evenodd"/><text font-family="Calibri,Calibri_MSFontService,sans-serif" font-weight="400" font-size="83" transform="matrix(1 0 0 1 2115.18 1121)">*</text><path d="M1157.5 1441.5 1279.07 1561.52" stroke="#000000" stroke-width="9.16667" stroke-miterlimit="8" fill="none" fill-rule="evenodd"/><path d="M1539.5 1328.5 1539.5 1441.84" stroke="#000000" stroke-width="9.16667" stroke-miterlimit="8" fill="none" fill-rule="evenodd"/><path d="M1936.5 989.5 2088.5 1045.59" stroke="#000000" stroke-width="9.16667" stroke-miterlimit="8" stroke-dasharray="36.6667 27.5" fill="none" fill-rule="evenodd"/><path d="M0 0 0.000721785 222.85" stroke="#000000" stroke-width="9.16667" stroke-miterlimit="8" stroke-dasharray="36.6667 27.5" fill="none" fill-rule="evenodd" transform="matrix(1 0 0 -1 2136.5 1385.35)"/><text font-family="Calibri,Calibri_MSFontService,sans-serif" font-weight="400" font-size="128" transform="matrix(1 0 0 1 1964.27 1558)">⁞</text><path d="M1022.5 830.5C1022.5 798.191 1026.87 772 1032.25 772L1295.25 772C1300.63 772 1305 745.808 1305 713.5 1305 745.808 1309.36 772 1314.75 772L1577.75 772C1583.13 772 1587.5 798.191 1587.5 830.5" stroke="#000000" stroke-width="4.58333" stroke-miterlimit="8" fill="none" fill-rule="evenodd"/><path d="M1789.5 835.5C1789.5 801.811 1794.05 774.5 1799.67 774.5L1986.33 774.5C1991.95 774.5 1996.5 747.189 1996.5 713.5 1996.5 747.189 2001.05 774.5 2006.67 774.5L2193.33 774.5C2198.95 774.5 2203.5 801.811 2203.5 835.5" stroke="#000000" stroke-width="4.58333" stroke-miterlimit="8" fill="none" fill-rule="evenodd"/><text font-family="Times New Roman,Times New Roman_MSFontService,sans-serif" font-style="italic" font-weight="400" font-size="83" transform="matrix(1 0 0 1 1172.88 661)">k<tspan font-family="Calibri,Calibri_MSFontService,sans-serif" font-style="normal" font-size="83" x="56" y="0">nodes</tspan><tspan font-size="83" x="686.831" y="7">n−k</tspan><tspan font-family="Calibri,Calibri_MSFontService,sans-serif" font-style="normal" font-size="83" x="838.831" y="7">nodes</tspan></text></g></svg>