<svg width="1218" height="400" xmlns="http://www.w3.org/2000/svg" xmlns:xlink="http://www.w3.org/1999/xlink" xml:space="preserve" overflow="hidden"><defs><clipPath id="clip0"><rect x="1757" y="1530" width="1218" height="400"/></clipPath></defs><g clip-path="url(#clip0)" transform="translate(-1757 -1530)"><path d="M2635.5 1611C2635.5 1573.17 2666.17 1542.5 2704 1542.5 2741.83 1542.5 2772.5 1573.17 2772.5 1611 2772.5 1648.83 2741.83 1679.5 2704 1679.5 2666.17 1679.5 2635.5 1648.83 2635.5 1611Z" stroke="#000000" stroke-width="9.16667" stroke-miterlimit="8" fill="none" fill-rule="evenodd"/><path d="M2833.5 1857C2833.5 1819.17 2864.17 1788.5 2902 1788.5 2939.83 1788.5 2970.5 1819.17 2970.5 1857 2970.5 1894.83 2939.83 1925.5 2902 1925.5 2864.17 1925.5 2833.5 1894.83 2833.5 1857Z" stroke="#000000" stroke-width="9.16667" stroke-miterlimit="8" fill="none" fill-rule="evenodd"/><path d="M2437.5 1857C2437.5 1819.17 2467.94 1788.5 2505.5 1788.5 2543.06 1788.5 2573.5 1819.17 2573.5 1857 2573.5 1894.83 2543.06 1925.5 2505.5 1925.5 2467.94 1925.5 2437.5 1894.83 2437.5 1857Z" stroke="#000000" stroke-width="9.16667" stroke-miterlimit="8" fill="none" fill-rule="evenodd"/><path d="M0 0 101.437 148.998" stroke="#000000" stroke-width="9.16667" stroke-miterlimit="8" fill="none" fill-rule="evenodd" transform="matrix(-1 0 0 1 2654.94 1659.5)"/><path d="M2573.5 1856.5 2833.05 1856.5" stroke="#000000" stroke-width="9.16667" stroke-miterlimit="8" fill="none" fill-rule="evenodd"/><path d="M2752.5 1659.5 2853.94 1808.5" stroke="#000000" stroke-width="9.16667" stroke-miterlimit="8" fill="none" fill-rule="evenodd"/><path d="M1959.5 1603C1959.5 1565.17 1990.17 1534.5 2028 1534.5 2065.83 1534.5 2096.5 1565.17 2096.5 1603 2096.5 1640.83 2065.83 1671.5 2028 1671.5 1990.17 1671.5 1959.5 1640.83 1959.5 1603Z" stroke="#000000" stroke-width="9.16667" stroke-miterlimit="8" fill="none" fill-rule="evenodd"/><path d="M2157.5 1849C2157.5 1811.17 2188.17 1780.5 2226 1780.5 2263.83 1780.5 2294.5 1811.17 2294.5 1849 2294.5 1886.83 2263.83 1917.5 2226 1917.5 2188.17 1917.5 2157.5 1886.83 2157.5 1849Z" stroke="#000000" stroke-width="9.16667" stroke-miterlimit="8" fill="none" fill-rule="evenodd"/><path d="M1761.5 1849C1761.5 1811.17 1791.94 1780.5 1829.5 1780.5 1867.06 1780.5 1897.5 1811.17 1897.5 1849 1897.5 1886.83 1867.06 1917.5 1829.5 1917.5 1791.94 1917.5 1761.5 1886.83 1761.5 1849Z" stroke="#000000" stroke-width="9.16667" stroke-miterlimit="8" fill="none" fill-rule="evenodd"/><path d="M0 0 101.437 148.998" stroke="#000000" stroke-width="9.16667" stroke-miterlimit="8" fill="none" fill-rule="evenodd" transform="matrix(1 0 0 -1 1877.5 1800.5)"/><path d="M2075.5 1651.5 2176.94 1800.5" stroke="#000000" stroke-width="9.16667" stroke-miterlimit="8" fill="none" fill-rule="evenodd"/></g></svg>