<svg width="1280" height="720" xmlns="http://www.w3.org/2000/svg" xmlns:xlink="http://www.w3.org/1999/xlink" overflow="hidden"><defs><clipPath id="clip0"><rect x="0" y="0" width="1280" height="720"/></clipPath><clipPath id="clip1"><rect x="584" y="6" width="44" height="202"/></clipPath><clipPath id="clip2"><rect x="627" y="6" width="44" height="202"/></clipPath><clipPath id="clip3"><rect x="670" y="6" width="44" height="202"/></clipPath><clipPath id="clip4"><rect x="713" y="6" width="45" height="202"/></clipPath><clipPath id="clip5"><rect x="757" y="6" width="44" height="202"/></clipPath><clipPath id="clip6"><rect x="63" y="-134" width="49" height="606"/></clipPath><clipPath id="clip7"><rect x="111" y="-134" width="84" height="606"/></clipPath><clipPath id="clip8"><rect x="111" y="-134" width="84" height="606"/></clipPath><clipPath id="clip9"><rect x="63" y="135" width="49" height="203"/></clipPath><clipPath id="clip10"><rect x="111" y="135" width="84" height="203"/></clipPath><clipPath id="clip11"><rect x="111" y="174" width="84" height="203"/></clipPath><clipPath id="clip12"><rect x="111" y="213" width="84" height="203"/></clipPath><clipPath id="clip13"><rect x="111" y="252" width="84" height="203"/></clipPath><clipPath id="clip14"><rect x="111" y="291" width="84" height="203"/></clipPath><clipPath id="clip15"><rect x="111" y="330" width="84" height="202"/></clipPath><clipPath id="clip16"><rect x="111" y="369" width="84" height="202"/></clipPath><clipPath id="clip17"><rect x="111" y="408" width="84" height="202"/></clipPath><clipPath id="clip18"><rect x="111" y="447" width="84" height="202"/></clipPath><clipPath id="clip19"><rect x="111" y="486" width="84" height="202"/></clipPath><clipPath id="clip20"><rect x="111" y="486" width="84" height="202"/></clipPath></defs><g clip-path="url(#clip0)"><rect x="0" y="0" width="1280" height="720" fill="#FFFFFF"/><path d="M194.874 217.321 238.122 217.321 238.122 256.254 194.874 256.254Z" fill="#A9D18E" fill-rule="evenodd"/><path d="M238.122 217.321 281.37 217.321 281.37 256.254 238.122 256.254Z" fill="#F4B183" fill-rule="evenodd"/><path d="M281.37 217.321 324.618 217.321 324.618 256.254 281.37 256.254Z" fill="#F4B183" fill-rule="evenodd"/><path d="M324.618 217.321 367.867 217.321 367.867 256.254 324.618 256.254Z" fill="#F4B183" fill-rule="evenodd"/><path d="M367.867 217.321 411.115 217.321 411.115 256.254 367.867 256.254Z" fill="#F4B183" fill-rule="evenodd"/><path d="M411.115 217.321 454.363 217.321 454.363 256.254 411.115 256.254Z" fill="#F4B183" fill-rule="evenodd"/><path d="M454.363 217.321 497.612 217.321 497.612 256.254 454.363 256.254Z" fill="#F4B183" fill-rule="evenodd"/><path d="M497.612 217.321 540.86 217.321 540.86 256.254 497.612 256.254Z" fill="#F4B183" fill-rule="evenodd"/><path d="M540.86 217.321 584.108 217.321 584.108 256.254 540.86 256.254Z" fill="#F4B183" fill-rule="evenodd"/><path d="M584.108 217.321 627.357 217.321 627.357 256.254 584.108 256.254Z" fill="#FFD966" fill-rule="evenodd"/><path d="M627.357 217.321 670.605 217.321 670.605 256.254 627.357 256.254Z" fill="#FFD966" fill-rule="evenodd"/><path d="M670.605 217.321 713.853 217.321 713.853 256.254 670.605 256.254Z" fill="#FFD966" fill-rule="evenodd"/><path d="M713.853 217.321 757.101 217.321 757.101 256.254 713.853 256.254Z" fill="#FFD966" fill-rule="evenodd"/><path d="M757.101 217.321 800.35 217.321 800.35 256.254 757.101 256.254Z" fill="#FFD966" fill-rule="evenodd"/><path d="M800.35 217.321 843.598 217.321 843.598 256.254 800.35 256.254Z" fill="#F4B183" fill-rule="evenodd"/><path d="M843.598 217.321 886.846 217.321 886.846 256.254 843.598 256.254Z" fill="#F4B183" fill-rule="evenodd"/><path d="M194.874 256.254 238.122 256.254 238.122 295.188 194.874 295.188Z" fill="#F4B183" fill-rule="evenodd"/><path d="M238.122 256.254 281.37 256.254 281.37 295.188 238.122 295.188Z" fill="#A9D18E" fill-rule="evenodd"/><path d="M281.37 256.254 324.618 256.254 324.618 295.188 281.37 295.188Z" fill="#F4B183" fill-rule="evenodd"/><path d="M324.618 256.254 367.867 256.254 367.867 295.188 324.618 295.188Z" fill="#F4B183" fill-rule="evenodd"/><path d="M367.867 256.254 411.115 256.254 411.115 295.188 367.867 295.188Z" fill="#F4B183" fill-rule="evenodd"/><path d="M411.115 256.254 454.363 256.254 454.363 295.188 411.115 295.188Z" fill="#F4B183" fill-rule="evenodd"/><path d="M454.363 256.254 497.612 256.254 497.612 295.188 454.363 295.188Z" fill="#F4B183" fill-rule="evenodd"/><path d="M497.612 256.254 540.86 256.254 540.86 295.188 497.612 295.188Z" fill="#F4B183" fill-rule="evenodd"/><path d="M540.86 256.254 584.108 256.254 584.108 295.188 540.86 295.188Z" fill="#F4B183" fill-rule="evenodd"/><path d="M584.108 256.254 627.357 256.254 627.357 295.188 584.108 295.188Z" fill="#FFD966" fill-rule="evenodd"/><path d="M627.357 256.254 670.605 256.254 670.605 295.188 627.357 295.188Z" fill="#FFD966" fill-rule="evenodd"/><path d="M670.605 256.254 713.853 256.254 713.853 295.188 670.605 295.188Z" fill="#FFD966" fill-rule="evenodd"/><path d="M713.853 256.254 757.101 256.254 757.101 295.188 713.853 295.188Z" fill="#FFD966" fill-rule="evenodd"/><path d="M757.101 256.254 800.35 256.254 800.35 295.188 757.101 295.188Z" fill="#FFD966" fill-rule="evenodd"/><path d="M800.35 256.254 843.598 256.254 843.598 295.188 800.35 295.188Z" fill="#F4B183" fill-rule="evenodd"/><path d="M843.598 256.254 886.846 256.254 886.846 295.188 843.598 295.188Z" fill="#F4B183" fill-rule="evenodd"/><path d="M194.874 295.188 238.122 295.188 238.122 334.121 194.874 334.121Z" fill="#F4B183" fill-rule="evenodd"/><path d="M238.122 295.188 281.37 295.188 281.37 334.121 238.122 334.121Z" fill="#F4B183" fill-rule="evenodd"/><path d="M281.37 295.188 324.618 295.188 324.618 334.121 281.37 334.121Z" fill="#A9D18E" fill-rule="evenodd"/><path d="M324.618 295.188 367.867 295.188 367.867 334.121 324.618 334.121Z" fill="#F4B183" fill-rule="evenodd"/><path d="M367.867 295.188 411.115 295.188 411.115 334.121 367.867 334.121Z" fill="#F4B183" fill-rule="evenodd"/><path d="M411.115 295.188 454.363 295.188 454.363 334.121 411.115 334.121Z" fill="#F4B183" fill-rule="evenodd"/><path d="M454.363 295.188 497.612 295.188 497.612 334.121 454.363 334.121Z" fill="#F4B183" fill-rule="evenodd"/><path d="M497.612 295.188 540.86 295.188 540.86 334.121 497.612 334.121Z" fill="#F4B183" fill-rule="evenodd"/><path d="M540.86 295.188 584.108 295.188 584.108 334.121 540.86 334.121Z" fill="#F4B183" fill-rule="evenodd"/><path d="M584.108 295.188 627.357 295.188 627.357 334.121 584.108 334.121Z" fill="#FFD966" fill-rule="evenodd"/><path d="M627.357 295.188 670.605 295.188 670.605 334.121 627.357 334.121Z" fill="#FFD966" fill-rule="evenodd"/><path d="M670.605 295.188 713.853 295.188 713.853 334.121 670.605 334.121Z" fill="#FFD966" fill-rule="evenodd"/><path d="M713.853 295.188 757.101 295.188 757.101 334.121 713.853 334.121Z" fill="#FFD966" fill-rule="evenodd"/><path d="M757.101 295.188 800.35 295.188 800.35 334.121 757.101 334.121Z" fill="#FFD966" fill-rule="evenodd"/><path d="M800.35 295.188 843.598 295.188 843.598 334.121 800.35 334.121Z" fill="#F4B183" fill-rule="evenodd"/><path d="M843.598 295.188 886.846 295.188 886.846 334.121 843.598 334.121Z" fill="#F4B183" fill-rule="evenodd"/><path d="M194.874 334.121 238.122 334.121 238.122 373.054 194.874 373.054Z" fill="#F4B183" fill-rule="evenodd"/><path d="M238.122 334.121 281.37 334.121 281.37 373.054 238.122 373.054Z" fill="#F4B183" fill-rule="evenodd"/><path d="M281.37 334.121 324.618 334.121 324.618 373.054 281.37 373.054Z" fill="#F4B183" fill-rule="evenodd"/><path d="M324.618 334.121 367.867 334.121 367.867 373.054 324.618 373.054Z" fill="#A9D18E" fill-rule="evenodd"/><path d="M367.867 334.121 411.115 334.121 411.115 373.054 367.867 373.054Z" fill="#F4B183" fill-rule="evenodd"/><path d="M411.115 334.121 454.363 334.121 454.363 373.054 411.115 373.054Z" fill="#F4B183" fill-rule="evenodd"/><path d="M454.363 334.121 497.612 334.121 497.612 373.054 454.363 373.054Z" fill="#F4B183" fill-rule="evenodd"/><path d="M497.612 334.121 540.86 334.121 540.86 373.054 497.612 373.054Z" fill="#F4B183" fill-rule="evenodd"/><path d="M540.86 334.121 584.108 334.121 584.108 373.054 540.86 373.054Z" fill="#F4B183" fill-rule="evenodd"/><path d="M584.108 334.121 627.357 334.121 627.357 373.054 584.108 373.054Z" fill="#FFD966" fill-rule="evenodd"/><path d="M627.357 334.121 670.605 334.121 670.605 373.054 627.357 373.054Z" fill="#FFD966" fill-rule="evenodd"/><path d="M670.605 334.121 713.853 334.121 713.853 373.054 670.605 373.054Z" fill="#FFD966" fill-rule="evenodd"/><path d="M713.853 334.121 757.101 334.121 757.101 373.054 713.853 373.054Z" fill="#FFD966" fill-rule="evenodd"/><path d="M757.101 334.121 800.35 334.121 800.35 373.054 757.101 373.054Z" fill="#FFD966" fill-rule="evenodd"/><path d="M800.35 334.121 843.598 334.121 843.598 373.054 800.35 373.054Z" fill="#F4B183" fill-rule="evenodd"/><path d="M843.598 334.121 886.846 334.121 886.846 373.054 843.598 373.054Z" fill="#F4B183" fill-rule="evenodd"/><path d="M194.874 373.054 238.122 373.054 238.122 411.987 194.874 411.987Z" fill="#F4B183" fill-rule="evenodd"/><path d="M238.122 373.054 281.37 373.054 281.37 411.987 238.122 411.987Z" fill="#F4B183" fill-rule="evenodd"/><path d="M281.37 373.054 324.618 373.054 324.618 411.987 281.37 411.987Z" fill="#F4B183" fill-rule="evenodd"/><path d="M324.618 373.054 367.867 373.054 367.867 411.987 324.618 411.987Z" fill="#F4B183" fill-rule="evenodd"/><path d="M367.867 373.054 411.115 373.054 411.115 411.987 367.867 411.987Z" fill="#A9D18E" fill-rule="evenodd"/><path d="M411.115 373.054 454.363 373.054 454.363 411.987 411.115 411.987Z" fill="#F4B183" fill-rule="evenodd"/><path d="M454.363 373.054 497.612 373.054 497.612 411.987 454.363 411.987Z" fill="#F4B183" fill-rule="evenodd"/><path d="M497.612 373.054 540.86 373.054 540.86 411.987 497.612 411.987Z" fill="#F4B183" fill-rule="evenodd"/><path d="M540.86 373.054 584.108 373.054 584.108 411.987 540.86 411.987Z" fill="#F4B183" fill-rule="evenodd"/><path d="M584.108 373.054 627.357 373.054 627.357 411.987 584.108 411.987Z" fill="#FFD966" fill-rule="evenodd"/><path d="M627.357 373.054 670.605 373.054 670.605 411.987 627.357 411.987Z" fill="#FFD966" fill-rule="evenodd"/><path d="M670.605 373.054 713.853 373.054 713.853 411.987 670.605 411.987Z" fill="#FFD966" fill-rule="evenodd"/><path d="M713.853 373.054 757.101 373.054 757.101 411.987 713.853 411.987Z" fill="#FFD966" fill-rule="evenodd"/><path d="M757.101 373.054 800.35 373.054 800.35 411.987 757.101 411.987Z" fill="#FFD966" fill-rule="evenodd"/><path d="M800.35 373.054 843.598 373.054 843.598 411.987 800.35 411.987Z" fill="#F4B183" fill-rule="evenodd"/><path d="M843.598 373.054 886.846 373.054 886.846 411.987 843.598 411.987Z" fill="#F4B183" fill-rule="evenodd"/><path d="M194.874 411.987 238.122 411.987 238.122 450.921 194.874 450.921Z" fill="#F4B183" fill-rule="evenodd"/><path d="M238.122 411.987 281.37 411.987 281.37 450.921 238.122 450.921Z" fill="#F4B183" fill-rule="evenodd"/><path d="M281.37 411.987 324.618 411.987 324.618 450.921 281.37 450.921Z" fill="#F4B183" fill-rule="evenodd"/><path d="M324.618 411.987 367.867 411.987 367.867 450.921 324.618 450.921Z" fill="#F4B183" fill-rule="evenodd"/><path d="M367.867 411.987 411.115 411.987 411.115 450.921 367.867 450.921Z" fill="#F4B183" fill-rule="evenodd"/><path d="M411.115 411.987 454.363 411.987 454.363 450.921 411.115 450.921Z" fill="#A9D18E" fill-rule="evenodd"/><path d="M454.363 411.987 497.612 411.987 497.612 450.921 454.363 450.921Z" fill="#F4B183" fill-rule="evenodd"/><path d="M497.612 411.987 540.86 411.987 540.86 450.921 497.612 450.921Z" fill="#F4B183" fill-rule="evenodd"/><path d="M540.86 411.987 584.108 411.987 584.108 450.921 540.86 450.921Z" fill="#F4B183" fill-rule="evenodd"/><path d="M584.108 411.987 627.357 411.987 627.357 450.921 584.108 450.921Z" fill="#FFD966" fill-rule="evenodd"/><path d="M627.357 411.987 670.605 411.987 670.605 450.921 627.357 450.921Z" fill="#FFD966" fill-rule="evenodd"/><path d="M670.605 411.987 713.853 411.987 713.853 450.921 670.605 450.921Z" fill="#FFD966" fill-rule="evenodd"/><path d="M713.853 411.987 757.101 411.987 757.101 450.921 713.853 450.921Z" fill="#FFD966" fill-rule="evenodd"/><path d="M757.101 411.987 800.35 411.987 800.35 450.921 757.101 450.921Z" fill="#FFD966" fill-rule="evenodd"/><path d="M800.35 411.987 843.598 411.987 843.598 450.921 800.35 450.921Z" fill="#F4B183" fill-rule="evenodd"/><path d="M843.598 411.987 886.846 411.987 886.846 450.921 843.598 450.921Z" fill="#F4B183" fill-rule="evenodd"/><path d="M194.874 450.921 238.122 450.921 238.122 489.854 194.874 489.854Z" fill="#F4B183" fill-rule="evenodd"/><path d="M238.122 450.921 281.37 450.921 281.37 489.854 238.122 489.854Z" fill="#F4B183" fill-rule="evenodd"/><path d="M281.37 450.921 324.618 450.921 324.618 489.854 281.37 489.854Z" fill="#F4B183" fill-rule="evenodd"/><path d="M324.618 450.921 367.867 450.921 367.867 489.854 324.618 489.854Z" fill="#F4B183" fill-rule="evenodd"/><path d="M367.867 450.921 411.115 450.921 411.115 489.854 367.867 489.854Z" fill="#F4B183" fill-rule="evenodd"/><path d="M411.115 450.921 454.363 450.921 454.363 489.854 411.115 489.854Z" fill="#F4B183" fill-rule="evenodd"/><path d="M454.363 450.921 497.612 450.921 497.612 489.854 454.363 489.854Z" fill="#A9D18E" fill-rule="evenodd"/><path d="M497.612 450.921 540.86 450.921 540.86 489.854 497.612 489.854Z" fill="#F4B183" fill-rule="evenodd"/><path d="M540.86 450.921 584.108 450.921 584.108 489.854 540.86 489.854Z" fill="#F4B183" fill-rule="evenodd"/><path d="M584.108 450.921 627.357 450.921 627.357 489.854 584.108 489.854Z" fill="#FFD966" fill-rule="evenodd"/><path d="M627.357 450.921 670.605 450.921 670.605 489.854 627.357 489.854Z" fill="#FFD966" fill-rule="evenodd"/><path d="M670.605 450.921 713.853 450.921 713.853 489.854 670.605 489.854Z" fill="#FFD966" fill-rule="evenodd"/><path d="M713.853 450.921 757.101 450.921 757.101 489.854 713.853 489.854Z" fill="#FFD966" fill-rule="evenodd"/><path d="M757.101 450.921 800.35 450.921 800.35 489.854 757.101 489.854Z" fill="#FFD966" fill-rule="evenodd"/><path d="M800.35 450.921 843.598 450.921 843.598 489.854 800.35 489.854Z" fill="#F4B183" fill-rule="evenodd"/><path d="M843.598 450.921 886.846 450.921 886.846 489.854 843.598 489.854Z" fill="#F4B183" fill-rule="evenodd"/><path d="M194.874 489.854 238.122 489.854 238.122 528.787 194.874 528.787Z" fill="#F4B183" fill-rule="evenodd"/><path d="M238.122 489.854 281.37 489.854 281.37 528.787 238.122 528.787Z" fill="#F4B183" fill-rule="evenodd"/><path d="M281.37 489.854 324.618 489.854 324.618 528.787 281.37 528.787Z" fill="#F4B183" fill-rule="evenodd"/><path d="M324.618 489.854 367.867 489.854 367.867 528.787 324.618 528.787Z" fill="#F4B183" fill-rule="evenodd"/><path d="M367.867 489.854 411.115 489.854 411.115 528.787 367.867 528.787Z" fill="#F4B183" fill-rule="evenodd"/><path d="M411.115 489.854 454.363 489.854 454.363 528.787 411.115 528.787Z" fill="#F4B183" fill-rule="evenodd"/><path d="M454.363 489.854 497.612 489.854 497.612 528.787 454.363 528.787Z" fill="#F4B183" fill-rule="evenodd"/><path d="M497.612 489.854 540.86 489.854 540.86 528.787 497.612 528.787Z" fill="#A9D18E" fill-rule="evenodd"/><path d="M540.86 489.854 584.108 489.854 584.108 528.787 540.86 528.787Z" fill="#F4B183" fill-rule="evenodd"/><path d="M584.108 489.854 627.357 489.854 627.357 528.787 584.108 528.787Z" fill="#FFD966" fill-rule="evenodd"/><path d="M627.357 489.854 670.605 489.854 670.605 528.787 627.357 528.787Z" fill="#FFD966" fill-rule="evenodd"/><path d="M670.605 489.854 713.853 489.854 713.853 528.787 670.605 528.787Z" fill="#FFD966" fill-rule="evenodd"/><path d="M713.853 489.854 757.101 489.854 757.101 528.787 713.853 528.787Z" fill="#FFD966" fill-rule="evenodd"/><path d="M757.101 489.854 800.35 489.854 800.35 528.787 757.101 528.787Z" fill="#FFD966" fill-rule="evenodd"/><path d="M800.35 489.854 843.598 489.854 843.598 528.787 800.35 528.787Z" fill="#F4B183" fill-rule="evenodd"/><path d="M843.598 489.854 886.846 489.854 886.846 528.787 843.598 528.787Z" fill="#F4B183" fill-rule="evenodd"/><path d="M194.874 528.787 238.122 528.787 238.122 567.721 194.874 567.721Z" fill="#F4B183" fill-rule="evenodd"/><path d="M238.122 528.787 281.37 528.787 281.37 567.721 238.122 567.721Z" fill="#F4B183" fill-rule="evenodd"/><path d="M281.37 528.787 324.618 528.787 324.618 567.721 281.37 567.721Z" fill="#F4B183" fill-rule="evenodd"/><path d="M324.618 528.787 367.867 528.787 367.867 567.721 324.618 567.721Z" fill="#F4B183" fill-rule="evenodd"/><path d="M367.867 528.787 411.115 528.787 411.115 567.721 367.867 567.721Z" fill="#F4B183" fill-rule="evenodd"/><path d="M411.115 528.787 454.363 528.787 454.363 567.721 411.115 567.721Z" fill="#F4B183" fill-rule="evenodd"/><path d="M454.363 528.787 497.612 528.787 497.612 567.721 454.363 567.721Z" fill="#F4B183" fill-rule="evenodd"/><path d="M497.612 528.787 540.86 528.787 540.86 567.721 497.612 567.721Z" fill="#F4B183" fill-rule="evenodd"/><path d="M540.86 528.787 584.108 528.787 584.108 567.721 540.86 567.721Z" fill="#A9D18E" fill-rule="evenodd"/><path d="M584.108 528.787 627.357 528.787 627.357 567.721 584.108 567.721Z" fill="#FFD966" fill-rule="evenodd"/><path d="M627.357 528.787 670.605 528.787 670.605 567.721 627.357 567.721Z" fill="#FFD966" fill-rule="evenodd"/><path d="M670.605 528.787 713.853 528.787 713.853 567.721 670.605 567.721Z" fill="#FFD966" fill-rule="evenodd"/><path d="M713.853 528.787 757.101 528.787 757.101 567.721 713.853 567.721Z" fill="#FFD966" fill-rule="evenodd"/><path d="M757.101 528.787 800.35 528.787 800.35 567.721 757.101 567.721Z" fill="#FFD966" fill-rule="evenodd"/><path d="M800.35 528.787 843.598 528.787 843.598 567.721 800.35 567.721Z" fill="#F4B183" fill-rule="evenodd"/><path d="M843.598 528.787 886.846 528.787 886.846 567.721 843.598 567.721Z" fill="#F4B183" fill-rule="evenodd"/><path d="M194.874 567.721 238.122 567.721 238.122 606.654 194.874 606.654Z" fill="#F4B183" fill-rule="evenodd"/><path d="M238.122 567.721 281.37 567.721 281.37 606.654 238.122 606.654Z" fill="#F4B183" fill-rule="evenodd"/><path d="M281.37 567.721 324.618 567.721 324.618 606.654 281.37 606.654Z" fill="#F4B183" fill-rule="evenodd"/><path d="M324.618 567.721 367.867 567.721 367.867 606.654 324.618 606.654Z" fill="#F4B183" fill-rule="evenodd"/><path d="M367.867 567.721 411.115 567.721 411.115 606.654 367.867 606.654Z" fill="#F4B183" fill-rule="evenodd"/><path d="M411.115 567.721 454.363 567.721 454.363 606.654 411.115 606.654Z" fill="#F4B183" fill-rule="evenodd"/><path d="M454.363 567.721 497.612 567.721 497.612 606.654 454.363 606.654Z" fill="#F4B183" fill-rule="evenodd"/><path d="M497.612 567.721 540.86 567.721 540.86 606.654 497.612 606.654Z" fill="#F4B183" fill-rule="evenodd"/><path d="M540.86 567.721 584.108 567.721 584.108 606.654 540.86 606.654Z" fill="#F4B183" fill-rule="evenodd"/><path d="M584.108 567.721 627.357 567.721 627.357 606.654 584.108 606.654Z" fill="#FFD966" fill-rule="evenodd"/><path d="M627.357 567.721 670.605 567.721 670.605 606.654 627.357 606.654Z" fill="#FFD966" fill-rule="evenodd"/><path d="M670.605 567.721 713.853 567.721 713.853 606.654 670.605 606.654Z" fill="#FFD966" fill-rule="evenodd"/><path d="M713.853 567.721 757.101 567.721 757.101 606.654 713.853 606.654Z" fill="#FFD966" fill-rule="evenodd"/><path d="M757.101 567.721 800.35 567.721 800.35 606.654 757.101 606.654Z" fill="#FFD966" fill-rule="evenodd"/><path d="M800.35 567.721 843.598 567.721 843.598 606.654 800.35 606.654Z" fill="#A9D18E" fill-rule="evenodd"/><path d="M843.598 567.721 886.846 567.721 886.846 606.654 843.598 606.654Z" fill="#A9D18E" fill-rule="evenodd"/><path d="M111.312 120.654 111.312 606.654" stroke="#000000" stroke-width="1.33333" stroke-linejoin="round" stroke-miterlimit="10" fill="none" fill-rule="evenodd"/><path d="M194.874 82.9208 194.874 607.321" stroke="#000000" stroke-width="1.33333" stroke-linejoin="round" stroke-miterlimit="10" fill="none" fill-rule="evenodd"/><path d="M238.122 216.654 238.122 607.321" stroke="#000000" stroke-width="1.33333" stroke-linejoin="round" stroke-miterlimit="10" fill="none" fill-rule="evenodd"/><path d="M281.37 216.654 281.37 607.321" stroke="#000000" stroke-width="1.33333" stroke-linejoin="round" stroke-miterlimit="10" fill="none" fill-rule="evenodd"/><path d="M324.618 216.654 324.618 607.321" stroke="#000000" stroke-width="1.33333" stroke-linejoin="round" stroke-miterlimit="10" fill="none" fill-rule="evenodd"/><path d="M367.867 216.654 367.867 607.321" stroke="#000000" stroke-width="1.33333" stroke-linejoin="round" stroke-miterlimit="10" fill="none" fill-rule="evenodd"/><path d="M411.115 216.654 411.115 607.321" stroke="#000000" stroke-width="1.33333" stroke-linejoin="round" stroke-miterlimit="10" fill="none" fill-rule="evenodd"/><path d="M454.363 216.654 454.363 607.321" stroke="#000000" stroke-width="1.33333" stroke-linejoin="round" stroke-miterlimit="10" fill="none" fill-rule="evenodd"/><path d="M497.612 216.654 497.612 607.321" stroke="#000000" stroke-width="1.33333" stroke-linejoin="round" stroke-miterlimit="10" fill="none" fill-rule="evenodd"/><path d="M540.86 216.654 540.86 607.321" stroke="#000000" stroke-width="1.33333" stroke-linejoin="round" stroke-miterlimit="10" fill="none" fill-rule="evenodd"/><path d="M584.108 216.654 584.108 607.321" stroke="#000000" stroke-width="1.33333" stroke-linejoin="round" stroke-miterlimit="10" fill="none" fill-rule="evenodd"/><path d="M627.357 216.654 627.357 607.321" stroke="#000000" stroke-width="1.33333" stroke-linejoin="round" stroke-miterlimit="10" fill="none" fill-rule="evenodd"/><path d="M670.605 216.654 670.605 607.321" stroke="#000000" stroke-width="1.33333" stroke-linejoin="round" stroke-miterlimit="10" fill="none" fill-rule="evenodd"/><path d="M713.853 216.654 713.853 607.321" stroke="#000000" stroke-width="1.33333" stroke-linejoin="round" stroke-miterlimit="10" fill="none" fill-rule="evenodd"/><path d="M757.101 216.654 757.101 607.321" stroke="#000000" stroke-width="1.33333" stroke-linejoin="round" stroke-miterlimit="10" fill="none" fill-rule="evenodd"/><path d="M800.35 216.654 800.35 607.321" stroke="#000000" stroke-width="1.33333" stroke-linejoin="round" stroke-miterlimit="10" fill="none" fill-rule="evenodd"/><path d="M843.598 216.654 843.598 607.321" stroke="#000000" stroke-width="1.33333" stroke-linejoin="round" stroke-miterlimit="10" fill="none" fill-rule="evenodd"/><path d="M110.645 121.321 886.846 121.321" stroke="#000000" stroke-width="1.33333" stroke-linejoin="round" stroke-miterlimit="10" fill="none" fill-rule="evenodd"/><path d="M63 217.321 887.513 217.321" stroke="#000000" stroke-width="1.33333" stroke-linejoin="round" stroke-miterlimit="10" fill="none" fill-rule="evenodd"/><path d="M194.207 256.254 887.513 256.254" stroke="#000000" stroke-width="1.33333" stroke-linejoin="round" stroke-miterlimit="10" fill="none" fill-rule="evenodd"/><path d="M194.207 295.188 887.513 295.188" stroke="#000000" stroke-width="1.33333" stroke-linejoin="round" stroke-miterlimit="10" fill="none" fill-rule="evenodd"/><path d="M194.207 334.121 887.513 334.121" stroke="#000000" stroke-width="1.33333" stroke-linejoin="round" stroke-miterlimit="10" fill="none" fill-rule="evenodd"/><path d="M194.207 373.054 887.513 373.054" stroke="#000000" stroke-width="1.33333" stroke-linejoin="round" stroke-miterlimit="10" fill="none" fill-rule="evenodd"/><path d="M194.207 411.987 887.513 411.987" stroke="#000000" stroke-width="1.33333" stroke-linejoin="round" stroke-miterlimit="10" fill="none" fill-rule="evenodd"/><path d="M194.207 450.921 887.513 450.921" stroke="#000000" stroke-width="1.33333" stroke-linejoin="round" stroke-miterlimit="10" fill="none" fill-rule="evenodd"/><path d="M194.207 489.854 887.513 489.854" stroke="#000000" stroke-width="1.33333" stroke-linejoin="round" stroke-miterlimit="10" fill="none" fill-rule="evenodd"/><path d="M194.207 528.787 887.513 528.787" stroke="#000000" stroke-width="1.33333" stroke-linejoin="round" stroke-miterlimit="10" fill="none" fill-rule="evenodd"/><path d="M194.207 567.721 887.513 567.721" stroke="#000000" stroke-width="1.33333" stroke-linejoin="round" stroke-miterlimit="10" fill="none" fill-rule="evenodd"/><path d="M886.846 216.654 886.846 607.321" stroke="#000000" stroke-width="1.33333" stroke-linejoin="round" stroke-miterlimit="10" fill="none" fill-rule="evenodd"/><path d="M194.207 606.654 887.513 606.654" stroke="#000000" stroke-width="1.33333" stroke-linejoin="round" stroke-miterlimit="10" fill="none" fill-rule="evenodd"/><path d="M111.5 121.421 195.5 217.421" stroke="#000000" stroke-width="1.33333" stroke-linejoin="round" stroke-miterlimit="10" fill="none" fill-rule="evenodd"/><text font-family="Times New Roman,Times New Roman_MSFontService,sans-serif" font-style="italic" font-weight="400" font-size="24" transform="translate(126.843 111)">D<tspan font-style="normal" font-size="24" x="17.3333" y="0">(</tspan>R<tspan font-size="16" x="40" y="5">j</tspan><tspan font-style="normal" font-size="24" x="44.5" y="0">)</tspan><tspan font-family="Calibri,Calibri_MSFontService,sans-serif" font-style="normal" font-size="24" x="83.5715" y="5">0</tspan><tspan font-family="Calibri,Calibri_MSFontService,sans-serif" font-style="normal" font-size="24" x="126.82" y="5">1</tspan><tspan font-family="Calibri,Calibri_MSFontService,sans-serif" font-style="normal" font-size="24" x="170.068" y="5">2</tspan><tspan font-family="Calibri,Calibri_MSFontService,sans-serif" font-style="normal" font-size="24" x="213.316" y="5">3</tspan><tspan font-family="Calibri,Calibri_MSFontService,sans-serif" font-style="normal" font-size="24" x="256.565" y="5">4</tspan><tspan font-family="Calibri,Calibri_MSFontService,sans-serif" font-style="normal" font-size="24" x="299.813" y="5">5</tspan><tspan font-family="Calibri,Calibri_MSFontService,sans-serif" font-style="normal" font-size="24" x="343.061" y="5">6</tspan><tspan font-family="Calibri,Calibri_MSFontService,sans-serif" font-style="normal" font-size="24" x="386.31" y="5">7</tspan><tspan font-family="Calibri,Calibri_MSFontService,sans-serif" font-style="normal" font-size="24" x="429.558" y="5">8</tspan></text><g clip-path="url(#clip1)"><text font-family="Calibri,Calibri_MSFontService,sans-serif" font-weight="400" font-size="24" transform="translate(591.399 116)">err</text></g><g clip-path="url(#clip2)"><text font-family="Calibri,Calibri_MSFontService,sans-serif" font-weight="400" font-size="24" transform="translate(634.647 116)">err</text></g><g clip-path="url(#clip3)"><text font-family="Calibri,Calibri_MSFontService,sans-serif" font-weight="400" font-size="24" transform="translate(677.896 116)">err</text></g><g clip-path="url(#clip4)"><text font-family="Calibri,Calibri_MSFontService,sans-serif" font-weight="400" font-size="24" transform="translate(721.144 116)">err</text></g><g clip-path="url(#clip5)"><text font-family="Calibri,Calibri_MSFontService,sans-serif" font-weight="400" font-size="24" transform="translate(764.392 116)">err</text></g><text font-family="Calibri,Calibri_MSFontService,sans-serif" font-weight="400" font-size="24" transform="translate(815.891 116)">9<tspan font-size="24" x="43.2483" y="0">9</tspan></text><g clip-path="url(#clip6)"><text font-family="Times New Roman,Times New Roman_MSFontService,sans-serif" font-style="italic" font-weight="400" font-size="24" transform="translate(74.906 207)">M</text></g><text font-family="Times New Roman,Times New Roman_MSFontService,sans-serif" font-style="italic" font-weight="400" font-size="16" transform="translate(94.906 212)">i<tspan font-size="24" x="63.6035" y="-63">R</tspan><tspan font-size="16" x="78.2701" y="-58">j</tspan></text><g clip-path="url(#clip7)"><text font-family="Times New Roman,Times New Roman_MSFontService,sans-serif" font-style="italic" font-weight="400" font-size="24" transform="translate(125.509 207)">E</text></g><text font-family="Times New Roman,Times New Roman_MSFontService,sans-serif" font-weight="400" font-size="24" transform="translate(140.176 207)">(<tspan font-style="italic" font-size="24" x="8" y="0">M</tspan><tspan font-style="italic" font-size="16" x="28" y="5">j</tspan></text><g clip-path="url(#clip8)"><text font-family="Times New Roman,Times New Roman_MSFontService,sans-serif" font-weight="400" font-size="24" transform="translate(172.676 207)">)</text></g><text font-family="Calibri,Calibri_MSFontService,sans-serif" font-weight="400" font-size="24" transform="matrix(6.12323e-17 -1 1 6.12323e-17 231.322 201)">(0000)<tspan font-size="24" x="2.6482e-15" y="43.2483">(0001)</tspan><tspan font-size="24" x="5.29639e-15" y="86.4966">(0010)</tspan><tspan font-size="24" x="7.94458e-15" y="129.745">(0011)</tspan><tspan font-size="24" x="1.05928e-14" y="172.993">(0100)</tspan><tspan font-size="24" x="1.3241e-14" y="216.241">(0101)</tspan><tspan font-size="24" x="1.58892e-14" y="259.49">(0110)</tspan><tspan font-size="24" x="1.85374e-14" y="302.738">(0111)</tspan><tspan font-size="24" x="2.11856e-14" y="345.986">(1000)</tspan><tspan font-size="24" x="2.38337e-14" y="389.235">(1001)</tspan><tspan font-size="24" x="2.64819e-14" y="432.483">(1010)</tspan><tspan font-size="24" x="2.91301e-14" y="475.731">(1011)</tspan><tspan font-size="24" x="3.17783e-14" y="518.979">(1100)</tspan><tspan font-size="24" x="3.44265e-14" y="562.228">(1101)</tspan><tspan font-size="24" x="3.70747e-14" y="605.476">(1110)</tspan><tspan font-size="24" x="3.97229e-14" y="648.724">(1111)</tspan></text><g clip-path="url(#clip9)"><text font-family="Calibri,Calibri_MSFontService,sans-serif" font-weight="400" font-size="24" transform="translate(81.0727 244)">0</text></g><g clip-path="url(#clip10)"><text font-family="Calibri,Calibri_MSFontService,sans-serif" font-weight="400" font-size="24" transform="translate(121.426 244)">(0000)</text></g><text font-family="Calibri,Calibri_MSFontService,sans-serif" font-weight="400" font-size="24" transform="translate(81.0727 283)">1</text><g clip-path="url(#clip11)"><text font-family="Calibri,Calibri_MSFontService,sans-serif" font-weight="400" font-size="24" transform="translate(121.426 283)">(0001)</text></g><text font-family="Calibri,Calibri_MSFontService,sans-serif" font-weight="400" font-size="24" transform="translate(81.0727 322)">2</text><g clip-path="url(#clip12)"><text font-family="Calibri,Calibri_MSFontService,sans-serif" font-weight="400" font-size="24" transform="translate(121.426 322)">(0010)</text></g><text font-family="Calibri,Calibri_MSFontService,sans-serif" font-weight="400" font-size="24" transform="translate(81.0727 361)">3</text><g clip-path="url(#clip13)"><text font-family="Calibri,Calibri_MSFontService,sans-serif" font-weight="400" font-size="24" transform="translate(121.426 361)">(0011)</text></g><text font-family="Calibri,Calibri_MSFontService,sans-serif" font-weight="400" font-size="24" transform="translate(81.0727 400)">4</text><g clip-path="url(#clip14)"><text font-family="Calibri,Calibri_MSFontService,sans-serif" font-weight="400" font-size="24" transform="translate(121.426 400)">(0100)</text></g><text font-family="Calibri,Calibri_MSFontService,sans-serif" font-weight="400" font-size="24" transform="translate(81.0727 439)">5</text><g clip-path="url(#clip15)"><text font-family="Calibri,Calibri_MSFontService,sans-serif" font-weight="400" font-size="24" transform="translate(121.426 439)">(0101)</text></g><text font-family="Calibri,Calibri_MSFontService,sans-serif" font-weight="400" font-size="24" transform="translate(81.0727 478)">6</text><g clip-path="url(#clip16)"><text font-family="Calibri,Calibri_MSFontService,sans-serif" font-weight="400" font-size="24" transform="translate(121.426 478)">(0110)</text></g><text font-family="Calibri,Calibri_MSFontService,sans-serif" font-weight="400" font-size="24" transform="translate(81.0727 517)">7</text><g clip-path="url(#clip17)"><text font-family="Calibri,Calibri_MSFontService,sans-serif" font-weight="400" font-size="24" transform="translate(121.426 517)">(0111)</text></g><text font-family="Calibri,Calibri_MSFontService,sans-serif" font-weight="400" font-size="24" transform="translate(81.0727 556)">8</text><g clip-path="url(#clip18)"><text font-family="Calibri,Calibri_MSFontService,sans-serif" font-weight="400" font-size="24" transform="translate(121.426 556)">(1000)</text></g><text font-family="Calibri,Calibri_MSFontService,sans-serif" font-weight="400" font-size="24" transform="translate(81.0727 595)">9</text><g clip-path="url(#clip19)"><text font-family="Calibri,Calibri_MSFontService,sans-serif" font-weight="400" font-size="24" transform="translate(121.426 595)">(</text></g><text font-family="Calibri,Calibri_MSFontService,sans-serif" font-weight="400" font-size="24" transform="translate(128.759 595)">1111</text><g clip-path="url(#clip20)"><text font-family="Calibri,Calibri_MSFontService,sans-serif" font-weight="400" font-size="24" transform="translate(177.426 595)">)</text></g><rect x="916" y="384" width="170" height="38" fill="#FFD966"/><text font-family="Calibri,Calibri_MSFontService,sans-serif" font-weight="400" font-size="24" transform="translate(925.6 410)">Detected Error</text><rect x="916" y="345" width="122" height="39" fill="#A9D18E"/><text font-family="Calibri,Calibri_MSFontService,sans-serif" font-weight="400" font-size="24" transform="translate(925.6 372)">Correct</text><rect x="916" y="422" width="135" height="39" fill="#F4B183"/><text font-family="Calibri,Calibri_MSFontService,sans-serif" font-weight="400" font-size="24" transform="translate(925.6 449)">Silent Error</text></g></svg>