<svg width="1280" height="720" xmlns="http://www.w3.org/2000/svg" xmlns:xlink="http://www.w3.org/1999/xlink" overflow="hidden"><defs><clipPath id="clip0"><rect x="0" y="0" width="1280" height="720"/></clipPath><clipPath id="clip1"><rect x="241" y="94" width="37" height="203"/></clipPath><clipPath id="clip2"><rect x="241" y="133" width="37" height="203"/></clipPath><clipPath id="clip3"><rect x="241" y="172" width="37" height="203"/></clipPath><clipPath id="clip4"><rect x="241" y="211" width="37" height="203"/></clipPath><clipPath id="clip5"><rect x="241" y="250" width="37" height="203"/></clipPath><clipPath id="clip6"><rect x="241" y="289" width="37" height="202"/></clipPath><clipPath id="clip7"><rect x="241" y="328" width="37" height="202"/></clipPath><clipPath id="clip8"><rect x="241" y="367" width="37" height="202"/></clipPath><clipPath id="clip9"><rect x="241" y="406" width="37" height="202"/></clipPath><clipPath id="clip10"><rect x="241" y="445" width="37" height="202"/></clipPath><clipPath id="clip11"><rect x="390" y="-19" width="92" height="203"/></clipPath><clipPath id="clip12"><rect x="390" y="20" width="92" height="203"/></clipPath><clipPath id="clip13"><rect x="390" y="59" width="92" height="202"/></clipPath><clipPath id="clip14"><rect x="390" y="98" width="92" height="202"/></clipPath><clipPath id="clip15"><rect x="390" y="137" width="92" height="202"/></clipPath><clipPath id="clip16"><rect x="390" y="176" width="92" height="202"/></clipPath><clipPath id="clip17"><rect x="390" y="215" width="92" height="202"/></clipPath><clipPath id="clip18"><rect x="390" y="254" width="92" height="202"/></clipPath><clipPath id="clip19"><rect x="390" y="292" width="92" height="203"/></clipPath><clipPath id="clip20"><rect x="390" y="331" width="92" height="203"/></clipPath><clipPath id="clip21"><rect x="390" y="370" width="92" height="203"/></clipPath><clipPath id="clip22"><rect x="390" y="409" width="92" height="203"/></clipPath><clipPath id="clip23"><rect x="390" y="448" width="92" height="203"/></clipPath><clipPath id="clip24"><rect x="390" y="487" width="92" height="203"/></clipPath><clipPath id="clip25"><rect x="390" y="526" width="92" height="203"/></clipPath><clipPath id="clip26"><rect x="390" y="565" width="92" height="203"/></clipPath><clipPath id="clip27"><rect x="735" y="-21" width="94" height="203"/></clipPath><clipPath id="clip28"><rect x="735" y="18" width="94" height="203"/></clipPath><clipPath id="clip29"><rect x="735" y="57" width="94" height="203"/></clipPath><clipPath id="clip30"><rect x="735" y="96" width="94" height="202"/></clipPath><clipPath id="clip31"><rect x="735" y="135" width="94" height="202"/></clipPath><clipPath id="clip32"><rect x="735" y="174" width="94" height="202"/></clipPath><clipPath id="clip33"><rect x="735" y="213" width="94" height="202"/></clipPath><clipPath id="clip34"><rect x="735" y="252" width="94" height="202"/></clipPath><clipPath id="clip35"><rect x="735" y="291" width="94" height="202"/></clipPath><clipPath id="clip36"><rect x="735" y="329" width="94" height="203"/></clipPath><clipPath id="clip37"><rect x="735" y="368" width="94" height="203"/></clipPath><clipPath id="clip38"><rect x="735" y="407" width="94" height="203"/></clipPath><clipPath id="clip39"><rect x="735" y="446" width="94" height="203"/></clipPath><clipPath id="clip40"><rect x="735" y="485" width="94" height="203"/></clipPath><clipPath id="clip41"><rect x="735" y="524" width="94" height="203"/></clipPath><clipPath id="clip42"><rect x="735" y="563" width="94" height="203"/></clipPath><clipPath id="clip43"><rect x="941" y="483" width="54" height="202"/></clipPath></defs><g clip-path="url(#clip0)"><rect x="0" y="0" width="1280" height="720" fill="#FFFFFF"/><path d="M483.5 236.833 728.495 236.833 728.495 238.167 483.5 238.167ZM727.161 233.5 735.161 237.5 727.161 241.5Z" fill="#FF0000"/><path d="M0.282334-0.603931 243.913 113.292 243.348 114.5-0.282334 0.603931ZM244.117 109.707 249.67 116.719 240.729 116.955Z" fill="#FF0000" fill-opacity="0.301961" transform="matrix(1 0 0 -1 485.5 354.219)"/><path d="M0.104137-0.658483 244.063 37.923 243.855 39.24-0.104137 0.658483ZM243.268 34.4224 250.545 39.623 242.018 42.3242Z" fill="#FF0000" fill-opacity="0.301961" transform="matrix(1 0 0 -1 484.5 277.123)"/><path d="M483.606 196.842 728.502 236.334 728.29 237.651 483.394 198.158ZM727.717 232.831 734.978 238.054 726.443 240.729Z" fill="#FF0000" fill-opacity="0.301961"/><path d="M241.943 176.287 277.464 176.287 277.464 215.22 241.943 215.22Z" fill="#FF0000" fill-rule="evenodd" fill-opacity="0.301961"/><path d="M241.943 215.22 277.464 215.22 277.464 254.153 241.943 254.153Z" fill="#FF0000" fill-rule="evenodd" fill-opacity="0.301961"/><path d="M241.943 254.153 277.464 254.153 277.464 293.087 241.943 293.087Z" fill="#FF0000" fill-rule="evenodd" fill-opacity="0.301961"/><path d="M241.943 293.087 277.464 293.087 277.464 332.02 241.943 332.02Z" fill="#FF0000" fill-rule="evenodd" fill-opacity="0.301961"/><path d="M241.943 332.02 277.464 332.02 277.464 370.953 241.943 370.953Z" fill="#FF0000" fill-rule="evenodd"/><path d="M241.943 370.953 277.464 370.953 277.464 409.887 241.943 409.887Z" fill="#FF0000" fill-rule="evenodd" fill-opacity="0.301961"/><path d="M241.943 409.887 277.464 409.887 277.464 448.82 241.943 448.82Z" fill="#FF0000" fill-rule="evenodd" fill-opacity="0.301961"/><path d="M241.943 448.82 277.464 448.82 277.464 487.753 241.943 487.753Z" fill="#FF0000" fill-rule="evenodd" fill-opacity="0.301961"/><path d="M241.943 487.753 277.464 487.753 277.464 526.687 241.943 526.687Z" fill="#FF0000" fill-rule="evenodd" fill-opacity="0.301961"/><path d="M241.943 526.687 277.464 526.687 277.464 565.62 241.943 565.62Z" fill="#FF0000" fill-rule="evenodd" fill-opacity="0.301961"/><path d="M241.277 215.22 278.131 215.22" stroke="#000000" stroke-width="1.33333" stroke-linejoin="round" stroke-miterlimit="10" fill="none" fill-rule="evenodd"/><path d="M241.277 254.153 278.131 254.153" stroke="#000000" stroke-width="1.33333" stroke-linejoin="round" stroke-miterlimit="10" fill="none" fill-rule="evenodd"/><path d="M241.277 293.087 278.131 293.087" stroke="#000000" stroke-width="1.33333" stroke-linejoin="round" stroke-miterlimit="10" fill="none" fill-rule="evenodd"/><path d="M241.277 332.02 278.131 332.02" stroke="#000000" stroke-width="1.33333" stroke-linejoin="round" stroke-miterlimit="10" fill="none" fill-rule="evenodd"/><path d="M241.277 370.953 278.131 370.953" stroke="#000000" stroke-width="1.33333" stroke-linejoin="round" stroke-miterlimit="10" fill="none" fill-rule="evenodd"/><path d="M241.277 409.887 278.131 409.887" stroke="#000000" stroke-width="1.33333" stroke-linejoin="round" stroke-miterlimit="10" fill="none" fill-rule="evenodd"/><path d="M241.277 448.82 278.131 448.82" stroke="#000000" stroke-width="1.33333" stroke-linejoin="round" stroke-miterlimit="10" fill="none" fill-rule="evenodd"/><path d="M241.277 487.753 278.131 487.753" stroke="#000000" stroke-width="1.33333" stroke-linejoin="round" stroke-miterlimit="10" fill="none" fill-rule="evenodd"/><path d="M241.277 526.687 278.131 526.687" stroke="#000000" stroke-width="1.33333" stroke-linejoin="round" stroke-miterlimit="10" fill="none" fill-rule="evenodd"/><path d="M241.943 175.62 241.943 566.287" stroke="#000000" stroke-width="1.33333" stroke-linejoin="round" stroke-miterlimit="10" fill="none" fill-rule="evenodd"/><path d="M277.464 175.62 277.464 566.287" stroke="#000000" stroke-width="1.33333" stroke-linejoin="round" stroke-miterlimit="10" fill="none" fill-rule="evenodd"/><path d="M241.277 176.287 278.131 176.287" stroke="#000000" stroke-width="1.33333" stroke-linejoin="round" stroke-miterlimit="10" fill="none" fill-rule="evenodd"/><path d="M241.277 565.62 278.131 565.62" stroke="#000000" stroke-width="1.33333" stroke-linejoin="round" stroke-miterlimit="10" fill="none" fill-rule="evenodd"/><g clip-path="url(#clip1)"><text font-family="Calibri,Calibri_MSFontService,sans-serif" font-weight="400" font-size="24" transform="translate(251.543 203)">0</text></g><g clip-path="url(#clip2)"><text font-family="Calibri,Calibri_MSFontService,sans-serif" font-weight="400" font-size="24" transform="translate(251.543 242)">1</text></g><g clip-path="url(#clip3)"><text font-family="Calibri,Calibri_MSFontService,sans-serif" font-weight="400" font-size="24" transform="translate(251.543 281)">2</text></g><g clip-path="url(#clip4)"><text font-family="Calibri,Calibri_MSFontService,sans-serif" font-weight="400" font-size="24" transform="translate(251.543 320)">3</text></g><g clip-path="url(#clip5)"><text font-family="Calibri,Calibri_MSFontService,sans-serif" font-weight="400" font-size="24" transform="translate(251.543 359)">4</text></g><g clip-path="url(#clip6)"><text font-family="Calibri,Calibri_MSFontService,sans-serif" font-weight="400" font-size="24" transform="translate(251.543 398)">5</text></g><g clip-path="url(#clip7)"><text font-family="Calibri,Calibri_MSFontService,sans-serif" font-weight="400" font-size="24" transform="translate(251.543 437)">6</text></g><g clip-path="url(#clip8)"><text font-family="Calibri,Calibri_MSFontService,sans-serif" font-weight="400" font-size="24" transform="translate(251.543 476)">7</text></g><g clip-path="url(#clip9)"><text font-family="Calibri,Calibri_MSFontService,sans-serif" font-weight="400" font-size="24" transform="translate(251.543 515)">8</text></g><g clip-path="url(#clip10)"><text font-family="Calibri,Calibri_MSFontService,sans-serif" font-weight="400" font-size="24" transform="translate(251.543 553)">9</text></g><path d="M390.974 63.1025 481.864 63.1025 481.864 102.036 390.974 102.036Z" fill="#FF0000" fill-rule="evenodd" fill-opacity="0.301961"/><path d="M390.974 102.036 481.864 102.036 481.864 140.969 390.974 140.969Z" fill="#FF0000" fill-rule="evenodd" fill-opacity="0.301961"/><path d="M390.974 140.969 481.864 140.969 481.864 179.902 390.974 179.902Z" fill="#FF0000" fill-rule="evenodd" fill-opacity="0.301961"/><path d="M390.974 179.902 481.864 179.902 481.864 218.836 390.974 218.836Z" fill="#FF0000" fill-rule="evenodd" fill-opacity="0.301961"/><path d="M390.974 218.836 481.864 218.836 481.864 257.769 390.974 257.769Z" fill="#FF0000" fill-rule="evenodd"/><path d="M390.974 257.769 481.864 257.769 481.864 296.702 390.974 296.702Z" fill="#FF0000" fill-rule="evenodd" fill-opacity="0.301961"/><path d="M390.974 296.702 481.864 296.702 481.864 335.636 390.974 335.636Z" fill="#FF0000" fill-rule="evenodd" fill-opacity="0.301961"/><path d="M390.974 335.636 481.864 335.636 481.864 374.569 390.974 374.569Z" fill="#FF0000" fill-rule="evenodd" fill-opacity="0.301961"/><path d="M390.974 374.569 481.864 374.569 481.864 413.502 390.974 413.502Z" fill="#FF0000" fill-rule="evenodd" fill-opacity="0.301961"/><path d="M390.974 413.502 481.864 413.502 481.864 452.436 390.974 452.436Z" fill="#FF0000" fill-rule="evenodd" fill-opacity="0.301961"/><path d="M390.974 452.436 481.864 452.436 481.864 491.369 390.974 491.369Z" fill="#DBDBDB" fill-rule="evenodd"/><path d="M390.974 491.369 481.864 491.369 481.864 530.302 390.974 530.302Z" fill="#DBDBDB" fill-rule="evenodd"/><path d="M390.974 530.302 481.864 530.302 481.864 569.236 390.974 569.236Z" fill="#DBDBDB" fill-rule="evenodd"/><path d="M390.974 569.236 481.864 569.236 481.864 608.169 390.974 608.169Z" fill="#DBDBDB" fill-rule="evenodd"/><path d="M390.974 608.169 481.864 608.169 481.864 647.102 390.974 647.102Z" fill="#DBDBDB" fill-rule="evenodd"/><path d="M390.974 647.102 481.864 647.102 481.864 686.036 390.974 686.036Z" fill="#DBDBDB" fill-rule="evenodd"/><path d="M390.307 102.036 482.531 102.036" stroke="#000000" stroke-width="1.33333" stroke-linejoin="round" stroke-miterlimit="10" fill="none" fill-rule="evenodd"/><path d="M390.307 140.969 482.531 140.969" stroke="#000000" stroke-width="1.33333" stroke-linejoin="round" stroke-miterlimit="10" fill="none" fill-rule="evenodd"/><path d="M390.307 179.902 482.531 179.902" stroke="#000000" stroke-width="1.33333" stroke-linejoin="round" stroke-miterlimit="10" fill="none" fill-rule="evenodd"/><path d="M390.307 218.836 482.531 218.836" stroke="#000000" stroke-width="1.33333" stroke-linejoin="round" stroke-miterlimit="10" fill="none" fill-rule="evenodd"/><path d="M390.307 257.769 482.531 257.769" stroke="#000000" stroke-width="1.33333" stroke-linejoin="round" stroke-miterlimit="10" fill="none" fill-rule="evenodd"/><path d="M390.307 296.702 482.531 296.702" stroke="#000000" stroke-width="1.33333" stroke-linejoin="round" stroke-miterlimit="10" fill="none" fill-rule="evenodd"/><path d="M390.307 335.636 482.531 335.636" stroke="#000000" stroke-width="1.33333" stroke-linejoin="round" stroke-miterlimit="10" fill="none" fill-rule="evenodd"/><path d="M390.307 374.569 482.531 374.569" stroke="#000000" stroke-width="1.33333" stroke-linejoin="round" stroke-miterlimit="10" fill="none" fill-rule="evenodd"/><path d="M390.307 413.502 482.531 413.502" stroke="#000000" stroke-width="1.33333" stroke-linejoin="round" stroke-miterlimit="10" fill="none" fill-rule="evenodd"/><path d="M390.307 452.436 482.531 452.436" stroke="#000000" stroke-width="1.33333" stroke-linejoin="round" stroke-miterlimit="10" fill="none" fill-rule="evenodd"/><path d="M390.307 491.369 482.531 491.369" stroke="#000000" stroke-width="1.33333" stroke-linejoin="round" stroke-miterlimit="10" fill="none" fill-rule="evenodd"/><path d="M390.307 530.302 482.531 530.302" stroke="#000000" stroke-width="1.33333" stroke-linejoin="round" stroke-miterlimit="10" fill="none" fill-rule="evenodd"/><path d="M390.307 569.236 482.531 569.236" stroke="#000000" stroke-width="1.33333" stroke-linejoin="round" stroke-miterlimit="10" fill="none" fill-rule="evenodd"/><path d="M390.307 608.169 482.531 608.169" stroke="#000000" stroke-width="1.33333" stroke-linejoin="round" stroke-miterlimit="10" fill="none" fill-rule="evenodd"/><path d="M390.307 647.102 482.531 647.102" stroke="#000000" stroke-width="1.33333" stroke-linejoin="round" stroke-miterlimit="10" fill="none" fill-rule="evenodd"/><path d="M390.974 62.4358 390.974 686.702" stroke="#000000" stroke-width="1.33333" stroke-linejoin="round" stroke-miterlimit="10" fill="none" fill-rule="evenodd"/><path d="M481.864 62.4358 481.864 686.702" stroke="#000000" stroke-width="1.33333" stroke-linejoin="round" stroke-miterlimit="10" fill="none" fill-rule="evenodd"/><path d="M390.307 63.1025 482.531 63.1025" stroke="#000000" stroke-width="1.33333" stroke-linejoin="round" stroke-miterlimit="10" fill="none" fill-rule="evenodd"/><path d="M390.307 686.036 482.531 686.036" stroke="#000000" stroke-width="1.33333" stroke-linejoin="round" stroke-miterlimit="10" fill="none" fill-rule="evenodd"/><g clip-path="url(#clip11)"><text font-family="Calibri,Calibri_MSFontService,sans-serif" font-weight="400" font-size="24" transform="translate(405.586 90)">(0000)</text></g><g clip-path="url(#clip12)"><text font-family="Calibri,Calibri_MSFontService,sans-serif" font-weight="400" font-size="24" transform="translate(405.586 129)">(0001)</text></g><g clip-path="url(#clip13)"><text font-family="Calibri,Calibri_MSFontService,sans-serif" font-weight="400" font-size="24" transform="translate(405.586 168)">(0010)</text></g><g clip-path="url(#clip14)"><text font-family="Calibri,Calibri_MSFontService,sans-serif" font-weight="400" font-size="24" transform="translate(405.586 207)">(0011)</text></g><g clip-path="url(#clip15)"><text font-family="Calibri,Calibri_MSFontService,sans-serif" font-weight="400" font-size="24" transform="translate(405.586 246)">(0100)</text></g><g clip-path="url(#clip16)"><text font-family="Calibri,Calibri_MSFontService,sans-serif" font-weight="400" font-size="24" transform="translate(405.586 285)">(0101)</text></g><g clip-path="url(#clip17)"><text font-family="Calibri,Calibri_MSFontService,sans-serif" font-weight="400" font-size="24" transform="translate(405.586 324)">(0110)</text></g><g clip-path="url(#clip18)"><text font-family="Calibri,Calibri_MSFontService,sans-serif" font-weight="400" font-size="24" transform="translate(405.586 362)">(0111)</text></g><g clip-path="url(#clip19)"><text font-family="Calibri,Calibri_MSFontService,sans-serif" font-weight="400" font-size="24" transform="translate(405.586 401)">(1000)</text></g><g clip-path="url(#clip20)"><text font-family="Calibri,Calibri_MSFontService,sans-serif" font-weight="400" font-size="24" transform="translate(405.586 440)">(1001)</text></g><g clip-path="url(#clip21)"><text font-family="Calibri,Calibri_MSFontService,sans-serif" font-weight="400" font-size="24" transform="translate(405.586 479)">(1010)</text></g><g clip-path="url(#clip22)"><text font-family="Calibri,Calibri_MSFontService,sans-serif" font-weight="400" font-size="24" transform="translate(405.586 518)">(1011)</text></g><g clip-path="url(#clip23)"><text font-family="Calibri,Calibri_MSFontService,sans-serif" font-weight="400" font-size="24" transform="translate(405.586 557)">(1100)</text></g><g clip-path="url(#clip24)"><text font-family="Calibri,Calibri_MSFontService,sans-serif" font-weight="400" font-size="24" transform="translate(405.586 596)">(1101)</text></g><g clip-path="url(#clip25)"><text font-family="Calibri,Calibri_MSFontService,sans-serif" font-weight="400" font-size="24" transform="translate(405.586 635)">(1110)</text></g><g clip-path="url(#clip26)"><text font-family="Calibri,Calibri_MSFontService,sans-serif" font-weight="400" font-size="24" transform="translate(405.586 674)">(1111)</text></g><path d="M735.251 61.1558 828.455 61.1558 828.455 100.089 735.251 100.089Z" fill="#DBDBDB" fill-rule="evenodd"/><path d="M735.251 100.089 828.455 100.089 828.455 139.022 735.251 139.022Z" fill="#DBDBDB" fill-rule="evenodd"/><path d="M735.251 139.022 828.455 139.022 828.455 177.956 735.251 177.956Z" fill="#DBDBDB" fill-rule="evenodd"/><path d="M735.251 177.956 828.455 177.956 828.455 216.889 735.251 216.889Z" fill="#DBDBDB" fill-rule="evenodd"/><path d="M735.251 216.889 828.455 216.889 828.455 255.822 735.251 255.822Z" fill="#FF0000" fill-rule="evenodd"/><path d="M735.251 255.822 828.455 255.822 828.455 294.756 735.251 294.756Z" fill="#DBDBDB" fill-rule="evenodd"/><path d="M735.251 294.756 828.455 294.756 828.455 333.689 735.251 333.689Z" fill="#DBDBDB" fill-rule="evenodd"/><path d="M735.251 333.689 828.455 333.689 828.455 372.622 735.251 372.622Z" fill="#DBDBDB" fill-rule="evenodd"/><path d="M735.251 372.622 828.455 372.622 828.455 411.556 735.251 411.556Z" fill="#DBDBDB" fill-rule="evenodd"/><path d="M735.251 411.556 828.455 411.556 828.455 450.489 735.251 450.489Z" fill="#DBDBDB" fill-rule="evenodd"/><path d="M735.251 450.489 828.455 450.489 828.455 489.422 735.251 489.422Z" fill="#DBDBDB" fill-rule="evenodd"/><path d="M735.251 489.422 828.455 489.422 828.455 528.356 735.251 528.356Z" fill="#DBDBDB" fill-rule="evenodd"/><path d="M735.251 528.356 828.455 528.356 828.455 567.289 735.251 567.289Z" fill="#DBDBDB" fill-rule="evenodd"/><path d="M735.251 567.289 828.455 567.289 828.455 606.222 735.251 606.222Z" fill="#DBDBDB" fill-rule="evenodd"/><path d="M735.251 606.222 828.455 606.222 828.455 645.156 735.251 645.156Z" fill="#DBDBDB" fill-rule="evenodd"/><path d="M735.251 645.156 828.455 645.156 828.455 684.089 735.251 684.089Z" fill="#DBDBDB" fill-rule="evenodd"/><path d="M734.585 100.089 829.122 100.089" stroke="#000000" stroke-width="1.33333" stroke-linejoin="round" stroke-miterlimit="10" fill="none" fill-rule="evenodd"/><path d="M734.585 139.022 829.122 139.022" stroke="#000000" stroke-width="1.33333" stroke-linejoin="round" stroke-miterlimit="10" fill="none" fill-rule="evenodd"/><path d="M734.585 177.956 829.122 177.956" stroke="#000000" stroke-width="1.33333" stroke-linejoin="round" stroke-miterlimit="10" fill="none" fill-rule="evenodd"/><path d="M734.585 216.889 829.122 216.889" stroke="#000000" stroke-width="1.33333" stroke-linejoin="round" stroke-miterlimit="10" fill="none" fill-rule="evenodd"/><path d="M734.585 255.822 829.122 255.822" stroke="#000000" stroke-width="1.33333" stroke-linejoin="round" stroke-miterlimit="10" fill="none" fill-rule="evenodd"/><path d="M734.585 294.756 829.122 294.756" stroke="#000000" stroke-width="1.33333" stroke-linejoin="round" stroke-miterlimit="10" fill="none" fill-rule="evenodd"/><path d="M734.585 333.689 829.122 333.689" stroke="#000000" stroke-width="1.33333" stroke-linejoin="round" stroke-miterlimit="10" fill="none" fill-rule="evenodd"/><path d="M734.585 372.622 829.122 372.622" stroke="#000000" stroke-width="1.33333" stroke-linejoin="round" stroke-miterlimit="10" fill="none" fill-rule="evenodd"/><path d="M734.585 411.556 829.122 411.556" stroke="#000000" stroke-width="1.33333" stroke-linejoin="round" stroke-miterlimit="10" fill="none" fill-rule="evenodd"/><path d="M734.585 450.489 829.122 450.489" stroke="#000000" stroke-width="1.33333" stroke-linejoin="round" stroke-miterlimit="10" fill="none" fill-rule="evenodd"/><path d="M734.585 489.422 829.122 489.422" stroke="#000000" stroke-width="1.33333" stroke-linejoin="round" stroke-miterlimit="10" fill="none" fill-rule="evenodd"/><path d="M734.585 528.356 829.122 528.356" stroke="#000000" stroke-width="1.33333" stroke-linejoin="round" stroke-miterlimit="10" fill="none" fill-rule="evenodd"/><path d="M734.585 567.289 829.122 567.289" stroke="#000000" stroke-width="1.33333" stroke-linejoin="round" stroke-miterlimit="10" fill="none" fill-rule="evenodd"/><path d="M734.585 606.222 829.122 606.222" stroke="#000000" stroke-width="1.33333" stroke-linejoin="round" stroke-miterlimit="10" fill="none" fill-rule="evenodd"/><path d="M734.585 645.156 829.122 645.156" stroke="#000000" stroke-width="1.33333" stroke-linejoin="round" stroke-miterlimit="10" fill="none" fill-rule="evenodd"/><path d="M735.251 60.4891 735.251 684.756" stroke="#000000" stroke-width="1.33333" stroke-linejoin="round" stroke-miterlimit="10" fill="none" fill-rule="evenodd"/><path d="M828.455 60.4891 828.455 684.756" stroke="#000000" stroke-width="1.33333" stroke-linejoin="round" stroke-miterlimit="10" fill="none" fill-rule="evenodd"/><path d="M734.585 61.1558 829.122 61.1558" stroke="#000000" stroke-width="1.33333" stroke-linejoin="round" stroke-miterlimit="10" fill="none" fill-rule="evenodd"/><path d="M734.585 684.089 829.122 684.089" stroke="#000000" stroke-width="1.33333" stroke-linejoin="round" stroke-miterlimit="10" fill="none" fill-rule="evenodd"/><g clip-path="url(#clip27)"><text font-family="Calibri,Calibri_MSFontService,sans-serif" font-weight="400" font-size="24" transform="translate(744.851 88)">(0000)</text></g><g clip-path="url(#clip28)"><text font-family="Calibri,Calibri_MSFontService,sans-serif" font-weight="400" font-size="24" transform="translate(744.851 127)">(0001)</text></g><g clip-path="url(#clip29)"><text font-family="Calibri,Calibri_MSFontService,sans-serif" font-weight="400" font-size="24" transform="translate(744.851 166)">(0010)</text></g><g clip-path="url(#clip30)"><text font-family="Calibri,Calibri_MSFontService,sans-serif" font-weight="400" font-size="24" transform="translate(744.851 205)">(0011)</text></g><g clip-path="url(#clip31)"><text font-family="Calibri,Calibri_MSFontService,sans-serif" font-weight="400" font-size="24" transform="translate(744.851 244)">(0100)</text></g><g clip-path="url(#clip32)"><text font-family="Calibri,Calibri_MSFontService,sans-serif" font-weight="400" font-size="24" transform="translate(744.851 283)">(0101)</text></g><g clip-path="url(#clip33)"><text font-family="Calibri,Calibri_MSFontService,sans-serif" font-weight="400" font-size="24" transform="translate(744.851 322)">(0110)</text></g><g clip-path="url(#clip34)"><text font-family="Calibri,Calibri_MSFontService,sans-serif" font-weight="400" font-size="24" transform="translate(744.851 360)">(0111)</text></g><g clip-path="url(#clip35)"><text font-family="Calibri,Calibri_MSFontService,sans-serif" font-weight="400" font-size="24" transform="translate(744.851 399)">(1000)</text></g><g clip-path="url(#clip36)"><text font-family="Calibri,Calibri_MSFontService,sans-serif" font-weight="400" font-size="24" transform="translate(744.851 438)">(1001)</text></g><g clip-path="url(#clip37)"><text font-family="Calibri,Calibri_MSFontService,sans-serif" font-weight="400" font-size="24" transform="translate(744.851 477)">(1010)</text></g><g clip-path="url(#clip38)"><text font-family="Calibri,Calibri_MSFontService,sans-serif" font-weight="400" font-size="24" transform="translate(744.851 516)">(1011)</text></g><g clip-path="url(#clip39)"><text font-family="Calibri,Calibri_MSFontService,sans-serif" font-weight="400" font-size="24" transform="translate(744.851 555)">(1100)</text></g><g clip-path="url(#clip40)"><text font-family="Calibri,Calibri_MSFontService,sans-serif" font-weight="400" font-size="24" transform="translate(744.851 594)">(1101)</text></g><g clip-path="url(#clip41)"><text font-family="Calibri,Calibri_MSFontService,sans-serif" font-weight="400" font-size="24" transform="translate(744.851 633)">(1110)</text></g><g clip-path="url(#clip42)"><text font-family="Calibri,Calibri_MSFontService,sans-serif" font-weight="400" font-size="24" transform="translate(744.851 672)">(1111)</text></g><path d="M941.607 175.51 994.973 175.51 994.973 214.443 941.607 214.443Z" fill="#DBDBDB" fill-rule="evenodd"/><path d="M941.607 214.443 994.973 214.443 994.973 253.377 941.607 253.377Z" fill="#DBDBDB" fill-rule="evenodd"/><path d="M941.607 253.377 994.973 253.377 994.973 292.31 941.607 292.31Z" fill="#DBDBDB" fill-rule="evenodd"/><path d="M941.607 292.31 994.973 292.31 994.973 331.243 941.607 331.243Z" fill="#DBDBDB" fill-rule="evenodd"/><path d="M941.607 331.243 994.973 331.243 994.973 370.177 941.607 370.177Z" fill="#FF0000" fill-rule="evenodd"/><path d="M941.607 370.177 994.973 370.177 994.973 409.11 941.607 409.11Z" fill="#DBDBDB" fill-rule="evenodd"/><path d="M941.607 409.11 994.973 409.11 994.973 448.043 941.607 448.043Z" fill="#DBDBDB" fill-rule="evenodd"/><path d="M941.607 448.043 994.973 448.043 994.973 486.977 941.607 486.977Z" fill="#DBDBDB" fill-rule="evenodd"/><path d="M941.607 486.977 994.973 486.977 994.973 525.91 941.607 525.91Z" fill="#DBDBDB" fill-rule="evenodd"/><path d="M941.607 525.91 994.973 525.91 994.973 564.843 941.607 564.843Z" fill="#DBDBDB" fill-rule="evenodd"/><path d="M941.607 564.843 994.973 564.843 994.973 603.777 941.607 603.777Z" fill="#DBDBDB" fill-rule="evenodd"/><path d="M940.94 214.443 995.64 214.443" stroke="#000000" stroke-width="1.33333" stroke-linejoin="round" stroke-miterlimit="10" fill="none" fill-rule="evenodd"/><path d="M940.94 253.377 995.64 253.377" stroke="#000000" stroke-width="1.33333" stroke-linejoin="round" stroke-miterlimit="10" fill="none" fill-rule="evenodd"/><path d="M940.94 292.31 995.64 292.31" stroke="#000000" stroke-width="1.33333" stroke-linejoin="round" stroke-miterlimit="10" fill="none" fill-rule="evenodd"/><path d="M940.94 331.243 995.64 331.243" stroke="#000000" stroke-width="1.33333" stroke-linejoin="round" stroke-miterlimit="10" fill="none" fill-rule="evenodd"/><path d="M940.94 370.177 995.64 370.177" stroke="#000000" stroke-width="1.33333" stroke-linejoin="round" stroke-miterlimit="10" fill="none" fill-rule="evenodd"/><path d="M940.94 409.11 995.64 409.11" stroke="#000000" stroke-width="1.33333" stroke-linejoin="round" stroke-miterlimit="10" fill="none" fill-rule="evenodd"/><path d="M940.94 448.043 995.64 448.043" stroke="#000000" stroke-width="1.33333" stroke-linejoin="round" stroke-miterlimit="10" fill="none" fill-rule="evenodd"/><path d="M940.94 486.977 995.64 486.977" stroke="#000000" stroke-width="1.33333" stroke-linejoin="round" stroke-miterlimit="10" fill="none" fill-rule="evenodd"/><path d="M940.94 525.91 995.64 525.91" stroke="#000000" stroke-width="1.33333" stroke-linejoin="round" stroke-miterlimit="10" fill="none" fill-rule="evenodd"/><path d="M940.94 564.843 995.64 564.843" stroke="#000000" stroke-width="1.33333" stroke-linejoin="round" stroke-miterlimit="10" fill="none" fill-rule="evenodd"/><path d="M941.607 174.843 941.607 604.443" stroke="#000000" stroke-width="1.33333" stroke-linejoin="round" stroke-miterlimit="10" fill="none" fill-rule="evenodd"/><path d="M994.973 174.843 994.973 604.443" stroke="#000000" stroke-width="1.33333" stroke-linejoin="round" stroke-miterlimit="10" fill="none" fill-rule="evenodd"/><path d="M940.94 175.51 995.64 175.51" stroke="#000000" stroke-width="1.33333" stroke-linejoin="round" stroke-miterlimit="10" fill="none" fill-rule="evenodd"/><path d="M940.94 603.777 995.64 603.777" stroke="#000000" stroke-width="1.33333" stroke-linejoin="round" stroke-miterlimit="10" fill="none" fill-rule="evenodd"/><text font-family="Calibri,Calibri_MSFontService,sans-serif" font-weight="400" font-size="24" transform="translate(962.207 202)">0<tspan font-size="24" x="0" y="39">1</tspan><tspan font-size="24" x="0" y="78">2</tspan><tspan font-size="24" x="0" y="117">3</tspan><tspan font-size="24" x="0" y="156">4</tspan><tspan font-size="24" x="0" y="195">5</tspan><tspan font-size="24" x="0" y="234">6</tspan><tspan font-size="24" x="0" y="273">7</tspan><tspan font-size="24" x="0" y="312">8</tspan><tspan font-size="24" x="0" y="351">9</tspan></text><g clip-path="url(#clip43)"><text font-family="Calibri,Calibri_MSFontService,sans-serif" font-weight="400" font-size="24" transform="translate(954.21 592)">err</text></g><path d="M0.479006-0.463678 108.619 111.251 107.661 112.178-0.479006 0.463678ZM110.086 107.975 112.777 116.505 104.338 113.539Z" transform="matrix(1 0 0 -1 277.5 197.005)"/><path d="M0.479006-0.463678 108.619 111.251 107.661 112.178-0.479006 0.463678ZM110.086 107.975 112.777 116.505 104.338 113.539Z" transform="matrix(1 0 0 -1 277.5 235.005)"/><path d="M0.479006-0.463678 108.619 111.251 107.661 112.178-0.479006 0.463678ZM110.086 107.975 112.777 116.505 104.338 113.539Z" transform="matrix(1 0 0 -1 277.5 274.005)"/><path d="M0.479006-0.463678 108.619 111.251 107.661 112.178-0.479006 0.463678ZM110.086 107.975 112.777 116.505 104.338 113.539Z" transform="matrix(1 0 0 -1 277.5 312.005)"/><path d="M0.479006-0.463678 108.619 111.251 107.661 112.178-0.479006 0.463678ZM110.086 107.975 112.777 116.505 104.338 113.539Z" transform="matrix(1 0 0 -1 277.5 356.005)"/><path d="M0.479006-0.463678 108.619 111.251 107.661 112.178-0.479006 0.463678ZM110.086 107.975 112.777 116.505 104.338 113.539Z" transform="matrix(1 0 0 -1 277.5 394.005)"/><path d="M0.479006-0.463678 108.619 111.251 107.661 112.178-0.479006 0.463678ZM110.086 107.975 112.777 116.505 104.338 113.539Z" transform="matrix(1 0 0 -1 277.5 433.005)"/><path d="M0.479006-0.463678 108.619 111.251 107.661 112.178-0.479006 0.463678ZM110.086 107.975 112.777 116.505 104.338 113.539Z" transform="matrix(1 0 0 -1 277.5 471.005)"/><path d="M0.479006-0.463678 108.619 111.251 107.661 112.178-0.479006 0.463678ZM110.086 107.975 112.777 116.505 104.338 113.539Z" transform="matrix(1 0 0 -1 277.5 507.005)"/><path d="M0.479006-0.463678 108.619 111.251 107.661 112.178-0.479006 0.463678ZM110.086 107.975 112.777 116.505 104.338 113.539Z" transform="matrix(1 0 0 -1 277.5 545.005)"/><path d="M828.979 232.036 937.119 343.751 936.161 344.678 828.021 232.964ZM938.587 340.475 941.277 349.005 932.839 346.039Z"/><text font-family="Times New Roman,Times New Roman_MSFontService,sans-serif" font-style="italic" font-weight="400" font-size="24" transform="translate(247.004 165)">M<tspan font-size="16" x="20" y="5">i</tspan><tspan font-size="24" x="161.923" y="-114">E</tspan><tspan font-style="normal" font-size="24" x="176.923" y="-114">(</tspan>M<tspan font-size="16" x="204.923" y="-109">i</tspan><tspan font-style="normal" font-size="24" x="208.923" y="-114">)</tspan><tspan font-size="24" x="513.697" y="-122">R</tspan><tspan font-size="16" x="528.697" y="-117">j</tspan><tspan font-size="24" x="695.549" y="-9">D</tspan><tspan font-style="normal" font-size="24" x="712.549" y="-9">(</tspan>R<tspan font-size="16" x="735.549" y="-4">j</tspan><tspan font-style="normal" font-size="24" x="740.549" y="-9">)</tspan></text><path d="M0.558598-0.363885 108.461 165.277 107.344 166.005-0.558598 0.363885ZM110.526 162.34 111.541 171.227 103.823 166.707Z" fill="#FF0000" fill-opacity="0.301961" transform="matrix(1 0 0 -1 129.5 367.727)"/><path d="M0.51147-0.427602 107.777 127.876 106.754 128.731-0.51147 0.427602ZM109.479 124.715 111.541 133.419 103.341 129.847Z" fill="#FF0000" fill-opacity="0.301961" transform="matrix(1 0 0 -1 129.5 367.919)"/><path d="M0.429638-0.50976 106.873 89.2037 106.014 90.2232-0.429638 0.50976ZM108.002 85.7955 111.541 94.0098 102.846 91.9127Z" fill="#FF0000" fill-opacity="0.301961" transform="matrix(1 0 0 -1 129.5 367.51)"/><path d="M0.300496-0.595102 105.891 52.7225 105.29 53.9127-0.300496 0.595102ZM106.203 49.1461 111.541 56.3226 102.597 56.2873Z" fill="#FF0000" fill-opacity="0.301961" transform="matrix(1 0 0 -1 129.5 367.823)"/><path d="M0.0733834-0.662615 104.988 10.9565 104.842 12.2817-0.0733834 0.662615ZM104.03 7.49667 111.541 12.353 103.15 15.4481Z" fill="#FF0000" transform="matrix(1 0 0 -1 129.5 367.853)"/><path d="M129.648 366.85 234.69 390.822 234.393 392.122 129.352 368.15ZM234.132 387.275 241.041 392.955 232.352 395.075Z" fill="#FF0000" fill-opacity="0.301961"/><path d="M129.835 366.924 235.613 428.436 234.943 429.589 129.165 368.076ZM236.136 424.884 241.041 432.364 232.115 431.8Z" fill="#FF0000" fill-opacity="0.301961"/><path d="M129.951 367.009 236.584 465.048 235.682 466.03 129.049 367.991ZM237.859 461.692 241.041 470.051 232.444 467.581Z" fill="#FF0000" fill-opacity="0.301961"/><path d="M130.02 367.083 237.387 500.859 236.348 501.694 128.98 367.917ZM239.152 497.733 241.04 506.476 232.913 502.74Z" fill="#FF0000" fill-opacity="0.301961"/><path d="M130.064 367.144 238.047 538.289 236.919 539.001 128.936 367.856ZM240.155 535.383 241.041 544.284 233.389 539.652Z" fill="#FF0000" fill-opacity="0.301961"/><path d="M0.348747-0.568172 246.756 150.678 246.058 151.814-0.348747 0.568172ZM247.363 147.139 252.089 154.733 243.178 153.957Z" fill="#FF0000" fill-opacity="0.301961" transform="matrix(1 0 0 -1 482.5 394.233)"/><path d="M0.411034-0.524876 244.856 190.902 244.034 191.951-0.411034 0.524876ZM245.861 187.455 249.693 195.537 240.928 193.753Z" fill="#FF0000" fill-opacity="0.301961" transform="matrix(1 0 0 -1 485.5 433.037)"/><path d="M0.191514-0.638566 246.134 73.1226 245.751 74.3997-0.191514 0.638566ZM245.815 69.5468 252.328 75.6763 243.517 77.2096Z" fill="#FF0000" fill-opacity="0.301961" transform="matrix(1 0 0 -1 482.5 315.176)"/><path d="M482.703 157.865 729.613 236.709 729.208 237.979 482.297 159.135ZM729.358 233.128 735.762 239.372 726.924 240.749Z" fill="#FF0000" fill-opacity="0.301961"/><path d="M483.788 118.899 728.743 236.138 728.167 237.341 483.212 120.101ZM728.979 232.555 734.468 239.617 725.525 239.772Z" fill="#FF0000" fill-opacity="0.301961"/><path d="M483.853 81.9346 730.793 236.161 730.086 237.292 483.147 83.0655ZM731.428 232.628 736.094 240.258 727.19 239.413Z" fill="#FF0000" fill-opacity="0.301961"/><text fill="#FF0000" font-family="Calibri,Calibri_MSFontService,sans-serif" font-weight="400" font-size="24" transform="translate(1003.61 357)">Received message</text></g></svg>