<svg width="1280" height="720" xmlns="http://www.w3.org/2000/svg" xmlns:xlink="http://www.w3.org/1999/xlink" overflow="hidden"><defs><clipPath id="clip0"><rect x="0" y="0" width="1280" height="720"/></clipPath><clipPath id="clip1"><rect x="147" y="114" width="36" height="202"/></clipPath><clipPath id="clip2"><rect x="147" y="153" width="36" height="202"/></clipPath><clipPath id="clip3"><rect x="147" y="191" width="36" height="203"/></clipPath><clipPath id="clip4"><rect x="147" y="230" width="36" height="203"/></clipPath><clipPath id="clip5"><rect x="147" y="269" width="36" height="203"/></clipPath><clipPath id="clip6"><rect x="147" y="308" width="36" height="203"/></clipPath><clipPath id="clip7"><rect x="147" y="347" width="36" height="203"/></clipPath><clipPath id="clip8"><rect x="147" y="386" width="36" height="203"/></clipPath><clipPath id="clip9"><rect x="147" y="425" width="36" height="203"/></clipPath><clipPath id="clip10"><rect x="147" y="464" width="36" height="203"/></clipPath><clipPath id="clip11"><rect x="295" y="-1" width="94" height="203"/></clipPath><clipPath id="clip12"><rect x="295" y="38" width="94" height="203"/></clipPath><clipPath id="clip13"><rect x="295" y="77" width="94" height="203"/></clipPath><clipPath id="clip14"><rect x="295" y="116" width="94" height="203"/></clipPath><clipPath id="clip15"><rect x="295" y="155" width="94" height="203"/></clipPath><clipPath id="clip16"><rect x="295" y="194" width="94" height="203"/></clipPath><clipPath id="clip17"><rect x="295" y="233" width="94" height="202"/></clipPath><clipPath id="clip18"><rect x="295" y="272" width="94" height="202"/></clipPath><clipPath id="clip19"><rect x="295" y="311" width="94" height="202"/></clipPath><clipPath id="clip20"><rect x="295" y="350" width="94" height="202"/></clipPath><clipPath id="clip21"><rect x="295" y="389" width="94" height="202"/></clipPath><clipPath id="clip22"><rect x="295" y="428" width="94" height="202"/></clipPath><clipPath id="clip23"><rect x="295" y="466" width="94" height="203"/></clipPath><clipPath id="clip24"><rect x="295" y="505" width="94" height="203"/></clipPath><clipPath id="clip25"><rect x="295" y="544" width="94" height="203"/></clipPath><clipPath id="clip26"><rect x="295" y="583" width="94" height="203"/></clipPath><clipPath id="clip27"><rect x="640" y="-2" width="94" height="203"/></clipPath><clipPath id="clip28"><rect x="640" y="37" width="94" height="203"/></clipPath><clipPath id="clip29"><rect x="640" y="76" width="94" height="203"/></clipPath><clipPath id="clip30"><rect x="640" y="115" width="94" height="203"/></clipPath><clipPath id="clip31"><rect x="640" y="154" width="94" height="203"/></clipPath><clipPath id="clip32"><rect x="640" y="193" width="94" height="203"/></clipPath><clipPath id="clip33"><rect x="640" y="232" width="94" height="203"/></clipPath><clipPath id="clip34"><rect x="640" y="271" width="94" height="203"/></clipPath><clipPath id="clip35"><rect x="640" y="310" width="94" height="203"/></clipPath><clipPath id="clip36"><rect x="640" y="349" width="94" height="202"/></clipPath><clipPath id="clip37"><rect x="640" y="388" width="94" height="202"/></clipPath><clipPath id="clip38"><rect x="640" y="427" width="94" height="202"/></clipPath><clipPath id="clip39"><rect x="640" y="466" width="94" height="202"/></clipPath><clipPath id="clip40"><rect x="640" y="505" width="94" height="202"/></clipPath><clipPath id="clip41"><rect x="640" y="544" width="94" height="202"/></clipPath><clipPath id="clip42"><rect x="640" y="582" width="94" height="203"/></clipPath><clipPath id="clip43"><rect x="846" y="502" width="55" height="203"/></clipPath></defs><g clip-path="url(#clip0)"><rect x="0" y="0" width="1280" height="720" fill="#FFFFFF"/><path d="M2.7899e-07-0.666667 244.207-0.666564 244.207 0.666769-2.7899e-07 0.666667ZM242.873-3.9999 250.873 0.000104987 242.873 4.0001Z" fill="#FF0000" fill-opacity="0.301961" transform="matrix(1 0 0 -1 389.5 451.5)"/><path d="M389.946 452.004 639.084 675.999 638.192 676.991 389.054 452.996ZM640.322 672.629 643.596 680.953 634.973 678.578Z" fill="#FF0000" fill-opacity="0.301961"/><path d="M0.0974811-0.659501 243.443 35.3094 243.248 36.6284-0.0974811 0.659501ZM242.611 31.8169 249.94 36.9437 241.441 39.731Z" fill="#FF0000" fill-opacity="0.301961" transform="matrix(1 0 0 -1 390.5 451.444)"/><path d="M0.194107-0.637783 244.69 73.7737 244.301 75.0492-0.194107 0.637783ZM244.385 70.1966 250.873 76.3525 242.055 77.85Z" fill="#FF0000" fill-opacity="0.301961" transform="matrix(1 0 0 -1 389.5 450.853)"/><path d="M0.275033-0.60729 246.008 110.682 245.458 111.897-0.275033 0.60729ZM246.169 107.096 251.807 114.04 242.869 114.383Z" fill="#FF0000" fill-opacity="0.301961" transform="matrix(1 0 0 -1 389.5 451.54)"/><path d="M0.354348-0.564696 246.514 153.901 245.805 155.031-0.354348 0.564696ZM247.156 150.369 251.807 158.009 242.904 157.145Z" fill="#FF0000" fill-opacity="0.301961" transform="matrix(1 0 0 -1 389.5 451.509)"/><path d="M0.407264-0.527807 245.069 188.257 244.254 189.312-0.407264 0.527807ZM246.05 184.803 249.94 192.857 241.163 191.137Z" fill="#FF0000" fill-opacity="0.301961" transform="matrix(1 0 0 -1 390.5 451.357)"/><path d="M0.451218-0.490761 245.483 224.798 244.581 225.779-0.451218 0.490761ZM246.758 221.442 249.94 229.801 241.344 227.331Z" fill="#FF0000" fill-opacity="0.301961" transform="matrix(1 0 0 -1 390.5 451.301)"/><path d="M0.488566-0.453595 245.894 263.872 244.917 264.779-0.488566 0.453595ZM247.428 260.626 249.94 269.21 241.566 266.069Z" fill="#FF0000" fill-opacity="0.301961" transform="matrix(1 0 0 -1 390.5 450.71)"/><path d="M0.516737-0.421221 247.178 302.173 246.145 303.016-0.516737 0.421221ZM248.919 299.033 250.873 307.761 242.718 304.088Z" fill="#FF0000" fill-opacity="0.301961" transform="matrix(1 0 0 -1 390.5 452.261)"/><path d="M0.542414-0.387598 248.007 345.921 246.923 346.696-0.542414 0.387598ZM249.943 342.897 251.34 351.731 243.434 347.548Z" fill="#FF0000" fill-opacity="0.301961" transform="matrix(1 0 0 -1 389.5 452.231)"/><path d="M389.594 451.84 632.695 486.328 632.508 487.648 389.406 453.16ZM631.843 482.84 639.202 487.924 630.719 490.761Z" fill="#FF0000" fill-opacity="0.301961"/><path d="M389.685 451.86 633.45 522.337 633.079 523.618 389.315 453.141ZM633.094 518.765 639.668 524.829 630.872 526.45Z" fill="#FF0000" fill-opacity="0.301961"/><path d="M389.772 450.891 633.386 559.61 632.843 560.828 389.228 452.109ZM633.526 556.022 639.202 562.935 630.266 563.328Z" fill="#FF0000" fill-opacity="0.301961"/><path d="M389.842 451.928 633.821 597.739 633.137 598.884 389.158 453.072ZM634.387 594.194 639.202 601.732 630.283 601.061Z" fill="#FF0000" fill-opacity="0.301961"/><path d="M389.9 451.967 634.271 635.438 633.47 636.504 389.1 453.033ZM635.206 631.972 639.202 639.974 630.403 638.369Z" fill="#FF0000" fill-opacity="0.301961"/><path d="M390.5 177.833 634.707 177.833 634.707 179.167 390.5 179.167ZM633.373 174.5 641.373 178.5 633.373 182.5Z" fill="#FF0000" fill-opacity="0.301961"/><path d="M0.106589-0.658091 243.648 38.7877 243.435 40.1039-0.106589 0.658091ZM242.865 35.2841 250.123 40.5117 241.586 43.1812Z" fill="#FF0000" fill-opacity="0.301961" transform="matrix(1 0 0 -1 389.5 177.012)"/><path d="M390.598 177.841 633.943 213.809 633.748 215.128 390.403 179.16ZM633.111 210.317 640.44 215.444 631.941 218.231Z" fill="#FF0000" fill-opacity="0.301961"/><path d="M390.694 177.862 635.19 252.274 634.801 253.549 390.306 179.138ZM634.885 248.697 641.373 254.853 632.555 256.35Z" fill="#FF0000" fill-opacity="0.301961"/><path d="M390.775 177.893 636.508 289.182 635.958 290.397 390.225 179.107ZM636.669 285.596 642.307 292.54 633.369 292.883Z" fill="#FF0000" fill-opacity="0.301961"/><path d="M390.854 177.935 637.014 332.401 636.305 333.531 390.146 179.065ZM637.656 328.869 642.307 336.509 633.404 335.645Z" fill="#FF0000" fill-opacity="0.301961"/><path d="M390.907 177.972 635.569 366.757 634.755 367.812 390.093 179.028ZM636.55 363.303 640.44 371.357 631.663 369.637Z" fill="#FF0000" fill-opacity="0.301961"/><path d="M390.951 178.009 635.984 403.298 635.081 404.279 390.049 178.991ZM637.258 399.942 640.44 408.301 631.844 405.831Z" fill="#FF0000" fill-opacity="0.301961"/><path d="M390.989 178.046 636.394 442.372 635.417 443.279 390.012 178.954ZM637.928 439.126 640.44 447.71 632.066 444.569Z" fill="#FF0000" fill-opacity="0.301961"/><path d="M391.017 177.079 637.678 479.673 636.645 480.516 389.983 177.921ZM639.419 476.533 641.373 485.261 633.218 481.588Z" fill="#FF0000" fill-opacity="0.301961"/><path d="M391.042 177.112 638.508 523.421 637.423 524.196 389.958 177.888ZM640.443 520.397 641.84 529.231 633.934 525.048Z" fill="#FF0000" fill-opacity="0.301961"/><path d="M391.06 177.138 639.717 562.128 638.597 562.851 389.94 177.862ZM641.793 559.198 642.773 568.089 635.073 563.539Z" fill="#FF0000" fill-opacity="0.301961"/><path d="M391.074 177.162 639.496 598.644 638.347 599.321 389.926 177.839ZM641.69 595.803 642.307 604.726 634.798 599.865Z" fill="#FF0000" fill-opacity="0.301961"/><path d="M391.087 178.183 639.262 638.089 638.088 638.722 389.913 178.817ZM641.561 635.331 641.84 644.271 634.521 639.13Z" fill="#FF0000" fill-opacity="0.301961"/><path d="M391.096 177.202 640.389 676.298 639.197 676.893 389.904 177.798ZM642.777 673.618 642.773 682.562 635.62 677.193Z" fill="#FF0000" fill-opacity="0.301961"/><path d="M0.191378-0.638607 245.068 72.746 244.685 74.0233-0.191378 0.638607ZM244.747 69.1701 251.262 75.2983 242.451 76.8334Z" fill="#FF0000" fill-opacity="0.301961" transform="matrix(1 0 0 -1 390.5 176.798)"/><path d="M388.5 135.833 632.707 135.833 632.707 137.167 388.5 137.167ZM631.373 132.5 639.373 136.5 631.373 140.5Z" fill="#FF0000" fill-opacity="0.501961"/><path d="M0.091466-0.660362 244.828 33.2378 244.645 34.5586-0.091466 0.660362ZM243.965 29.7531 251.341 34.8129 242.868 37.6775Z" fill="#FF0000" fill-opacity="0.301961" transform="matrix(1 0 0 -1 388.5 134.313)"/><path d="M389.598 135.841 632.943 171.809 632.748 173.128 389.403 137.16ZM632.111 168.317 639.44 173.444 630.941 176.231Z" fill="#FF0000" fill-opacity="0.301961"/><path d="M388.694 135.862 633.19 210.274 632.801 211.549 388.306 137.138ZM632.885 206.697 639.373 212.853 630.555 214.35Z" fill="#FF0000" fill-opacity="0.301961"/><path d="M388.775 135.893 634.508 247.182 633.958 248.397 388.225 137.107ZM634.669 243.596 640.307 250.54 631.369 250.883Z" fill="#FF0000" fill-opacity="0.301961"/><path d="M388.854 135.935 635.014 290.401 634.305 291.531 388.146 137.065ZM635.656 286.869 640.307 294.509 631.404 293.645Z" fill="#FF0000" fill-opacity="0.301961"/><path d="M389.907 135.972 634.569 324.757 633.755 325.812 389.093 137.028ZM635.55 321.303 639.44 329.357 630.663 327.637Z" fill="#FF0000" fill-opacity="0.301961"/><path d="M389.951 136.009 634.984 361.298 634.081 362.279 389.049 136.991ZM636.258 357.942 639.44 366.301 630.844 363.831Z" fill="#FF0000" fill-opacity="0.301961"/><path d="M389.989 136.046 635.394 400.372 634.417 401.279 389.012 136.954ZM636.928 397.126 639.44 405.71 631.066 402.569Z" fill="#FF0000" fill-opacity="0.301961"/><path d="M390.017 135.079 636.678 437.673 635.645 438.516 388.983 135.921ZM638.419 434.533 640.373 443.261 632.218 439.588Z" fill="#FF0000" fill-opacity="0.301961"/><path d="M390.042 135.112 637.508 481.421 636.423 482.196 388.958 135.888ZM639.443 478.397 640.84 487.231 632.934 483.048Z" fill="#FF0000" fill-opacity="0.301961"/><path d="M390.06 135.138 638.717 520.128 637.597 520.851 388.94 135.862ZM640.793 517.198 641.773 526.089 634.073 521.539Z" fill="#FF0000" fill-opacity="0.301961"/><path d="M389.074 135.162 637.496 556.644 636.347 557.321 387.926 135.839ZM639.69 553.803 640.307 562.726 632.798 557.865Z" fill="#FF0000" fill-opacity="0.301961"/><path d="M390.087 136.183 638.262 596.089 637.088 596.722 388.913 136.817ZM640.561 593.331 640.84 602.271 633.521 597.13Z" fill="#FF0000" fill-opacity="0.301961"/><path d="M390.096 134.202 639.389 633.298 638.197 633.893 388.904 134.798ZM641.777 630.618 641.773 639.562 634.62 634.193Z" fill="#FF0000" fill-opacity="0.301961"/><path d="M390.106 134.222 639.594 677.193 638.383 677.75 388.894 134.778ZM642.068 674.592 641.773 683.532 634.798 677.932Z" fill="#FF0000" fill-opacity="0.301961"/><path d="M146.492 234.663 183.346 234.663" stroke="#000000" stroke-width="1.33333" stroke-linejoin="round" stroke-miterlimit="10" fill="none" fill-rule="evenodd"/><path d="M146.492 273.596 183.346 273.596" stroke="#000000" stroke-width="1.33333" stroke-linejoin="round" stroke-miterlimit="10" fill="none" fill-rule="evenodd"/><path d="M146.492 312.53 183.346 312.53" stroke="#000000" stroke-width="1.33333" stroke-linejoin="round" stroke-miterlimit="10" fill="none" fill-rule="evenodd"/><path d="M146.492 351.463 183.346 351.463" stroke="#000000" stroke-width="1.33333" stroke-linejoin="round" stroke-miterlimit="10" fill="none" fill-rule="evenodd"/><path d="M146.492 390.396 183.346 390.396" stroke="#000000" stroke-width="1.33333" stroke-linejoin="round" stroke-miterlimit="10" fill="none" fill-rule="evenodd"/><path d="M146.492 429.33 183.346 429.33" stroke="#000000" stroke-width="1.33333" stroke-linejoin="round" stroke-miterlimit="10" fill="none" fill-rule="evenodd"/><path d="M146.492 468.263 183.346 468.263" stroke="#000000" stroke-width="1.33333" stroke-linejoin="round" stroke-miterlimit="10" fill="none" fill-rule="evenodd"/><path d="M146.492 507.196 183.346 507.196" stroke="#000000" stroke-width="1.33333" stroke-linejoin="round" stroke-miterlimit="10" fill="none" fill-rule="evenodd"/><path d="M146.492 546.13 183.346 546.13" stroke="#000000" stroke-width="1.33333" stroke-linejoin="round" stroke-miterlimit="10" fill="none" fill-rule="evenodd"/><path d="M147.159 195.063 147.159 585.73" stroke="#000000" stroke-width="1.33333" stroke-linejoin="round" stroke-miterlimit="10" fill="none" fill-rule="evenodd"/><path d="M182.68 195.063 182.68 585.73" stroke="#000000" stroke-width="1.33333" stroke-linejoin="round" stroke-miterlimit="10" fill="none" fill-rule="evenodd"/><path d="M146.492 195.73 183.346 195.73" stroke="#000000" stroke-width="1.33333" stroke-linejoin="round" stroke-miterlimit="10" fill="none" fill-rule="evenodd"/><path d="M146.492 585.063 183.346 585.063" stroke="#000000" stroke-width="1.33333" stroke-linejoin="round" stroke-miterlimit="10" fill="none" fill-rule="evenodd"/><g clip-path="url(#clip1)"><text font-family="Calibri,Calibri_MSFontService,sans-serif" font-weight="400" font-size="24" transform="translate(156.759 223)">0</text></g><g clip-path="url(#clip2)"><text font-family="Calibri,Calibri_MSFontService,sans-serif" font-weight="400" font-size="24" transform="translate(156.759 261)">1</text></g><g clip-path="url(#clip3)"><text font-family="Calibri,Calibri_MSFontService,sans-serif" font-weight="400" font-size="24" transform="translate(156.759 300)">2</text></g><g clip-path="url(#clip4)"><text font-family="Calibri,Calibri_MSFontService,sans-serif" font-weight="400" font-size="24" transform="translate(156.759 339)">3</text></g><g clip-path="url(#clip5)"><text font-family="Calibri,Calibri_MSFontService,sans-serif" font-weight="400" font-size="24" transform="translate(156.759 378)">4</text></g><g clip-path="url(#clip6)"><text font-family="Calibri,Calibri_MSFontService,sans-serif" font-weight="400" font-size="24" transform="translate(156.759 417)">5</text></g><g clip-path="url(#clip7)"><text font-family="Calibri,Calibri_MSFontService,sans-serif" font-weight="400" font-size="24" transform="translate(156.759 456)">6</text></g><g clip-path="url(#clip8)"><text font-family="Calibri,Calibri_MSFontService,sans-serif" font-weight="400" font-size="24" transform="translate(156.759 495)">7</text></g><g clip-path="url(#clip9)"><text font-family="Calibri,Calibri_MSFontService,sans-serif" font-weight="400" font-size="24" transform="translate(156.759 534)">8</text></g><g clip-path="url(#clip10)"><text font-family="Calibri,Calibri_MSFontService,sans-serif" font-weight="400" font-size="24" transform="translate(156.759 573)">9</text></g><path d="M295.456 470.709 388.66 470.709 388.66 509.642 295.456 509.642Z" fill="#DBDBDB" fill-rule="evenodd"/><path d="M295.456 509.642 388.66 509.642 388.66 548.576 295.456 548.576Z" fill="#DBDBDB" fill-rule="evenodd"/><path d="M295.456 548.576 388.66 548.576 388.66 587.509 295.456 587.509Z" fill="#DBDBDB" fill-rule="evenodd"/><path d="M295.456 587.509 388.66 587.509 388.66 626.442 295.456 626.442Z" fill="#DBDBDB" fill-rule="evenodd"/><path d="M295.456 626.442 388.66 626.442 388.66 665.376 295.456 665.376Z" fill="#DBDBDB" fill-rule="evenodd"/><path d="M295.456 665.376 388.66 665.376 388.66 704.309 295.456 704.309Z" fill="#DBDBDB" fill-rule="evenodd"/><path d="M294.79 120.309 389.327 120.309" stroke="#000000" stroke-width="1.33333" stroke-linejoin="round" stroke-miterlimit="10" fill="none" fill-rule="evenodd"/><path d="M294.79 159.242 389.327 159.242" stroke="#000000" stroke-width="1.33333" stroke-linejoin="round" stroke-miterlimit="10" fill="none" fill-rule="evenodd"/><path d="M294.79 198.176 389.327 198.176" stroke="#000000" stroke-width="1.33333" stroke-linejoin="round" stroke-miterlimit="10" fill="none" fill-rule="evenodd"/><path d="M294.79 237.109 389.327 237.109" stroke="#000000" stroke-width="1.33333" stroke-linejoin="round" stroke-miterlimit="10" fill="none" fill-rule="evenodd"/><path d="M294.79 276.042 389.327 276.042" stroke="#000000" stroke-width="1.33333" stroke-linejoin="round" stroke-miterlimit="10" fill="none" fill-rule="evenodd"/><path d="M294.79 314.976 389.327 314.976" stroke="#000000" stroke-width="1.33333" stroke-linejoin="round" stroke-miterlimit="10" fill="none" fill-rule="evenodd"/><path d="M294.79 353.909 389.327 353.909" stroke="#000000" stroke-width="1.33333" stroke-linejoin="round" stroke-miterlimit="10" fill="none" fill-rule="evenodd"/><path d="M294.79 392.842 389.327 392.842" stroke="#000000" stroke-width="1.33333" stroke-linejoin="round" stroke-miterlimit="10" fill="none" fill-rule="evenodd"/><path d="M294.79 431.776 389.327 431.776" stroke="#000000" stroke-width="1.33333" stroke-linejoin="round" stroke-miterlimit="10" fill="none" fill-rule="evenodd"/><path d="M294.79 470.709 389.327 470.709" stroke="#000000" stroke-width="1.33333" stroke-linejoin="round" stroke-miterlimit="10" fill="none" fill-rule="evenodd"/><path d="M294.79 509.642 389.327 509.642" stroke="#000000" stroke-width="1.33333" stroke-linejoin="round" stroke-miterlimit="10" fill="none" fill-rule="evenodd"/><path d="M294.79 548.576 389.327 548.576" stroke="#000000" stroke-width="1.33333" stroke-linejoin="round" stroke-miterlimit="10" fill="none" fill-rule="evenodd"/><path d="M294.79 587.509 389.327 587.509" stroke="#000000" stroke-width="1.33333" stroke-linejoin="round" stroke-miterlimit="10" fill="none" fill-rule="evenodd"/><path d="M294.79 626.442 389.327 626.442" stroke="#000000" stroke-width="1.33333" stroke-linejoin="round" stroke-miterlimit="10" fill="none" fill-rule="evenodd"/><path d="M294.79 665.376 389.327 665.376" stroke="#000000" stroke-width="1.33333" stroke-linejoin="round" stroke-miterlimit="10" fill="none" fill-rule="evenodd"/><path d="M295.456 80.7089 295.456 704.976" stroke="#000000" stroke-width="1.33333" stroke-linejoin="round" stroke-miterlimit="10" fill="none" fill-rule="evenodd"/><path d="M388.66 80.7089 388.66 704.976" stroke="#000000" stroke-width="1.33333" stroke-linejoin="round" stroke-miterlimit="10" fill="none" fill-rule="evenodd"/><path d="M294.79 81.3755 389.327 81.3755" stroke="#000000" stroke-width="1.33333" stroke-linejoin="round" stroke-miterlimit="10" fill="none" fill-rule="evenodd"/><path d="M294.79 704.309 389.327 704.309" stroke="#000000" stroke-width="1.33333" stroke-linejoin="round" stroke-miterlimit="10" fill="none" fill-rule="evenodd"/><g clip-path="url(#clip11)"><text font-family="Calibri,Calibri_MSFontService,sans-serif" font-weight="400" font-size="24" transform="translate(305.056 108)">(0000)</text></g><g clip-path="url(#clip12)"><text font-family="Calibri,Calibri_MSFontService,sans-serif" font-weight="400" font-size="24" transform="translate(305.056 147)">(0001)</text></g><g clip-path="url(#clip13)"><text font-family="Calibri,Calibri_MSFontService,sans-serif" font-weight="400" font-size="24" transform="translate(305.056 186)">(0010)</text></g><g clip-path="url(#clip14)"><text font-family="Calibri,Calibri_MSFontService,sans-serif" font-weight="400" font-size="24" transform="translate(305.056 225)">(0011)</text></g><g clip-path="url(#clip15)"><text font-family="Calibri,Calibri_MSFontService,sans-serif" font-weight="400" font-size="24" transform="translate(305.056 264)">(0100)</text></g><g clip-path="url(#clip16)"><text font-family="Calibri,Calibri_MSFontService,sans-serif" font-weight="400" font-size="24" transform="translate(305.056 303)">(0101)</text></g><g clip-path="url(#clip17)"><text font-family="Calibri,Calibri_MSFontService,sans-serif" font-weight="400" font-size="24" transform="translate(305.056 342)">(0110)</text></g><g clip-path="url(#clip18)"><text font-family="Calibri,Calibri_MSFontService,sans-serif" font-weight="400" font-size="24" transform="translate(305.056 381)">(0111)</text></g><g clip-path="url(#clip19)"><text font-family="Calibri,Calibri_MSFontService,sans-serif" font-weight="400" font-size="24" transform="translate(305.056 420)">(1000)</text></g><g clip-path="url(#clip20)"><text font-family="Calibri,Calibri_MSFontService,sans-serif" font-weight="400" font-size="24" transform="translate(305.056 459)">(1001)</text></g><g clip-path="url(#clip21)"><text font-family="Calibri,Calibri_MSFontService,sans-serif" font-weight="400" font-size="24" transform="translate(305.056 498)">(1010)</text></g><g clip-path="url(#clip22)"><text font-family="Calibri,Calibri_MSFontService,sans-serif" font-weight="400" font-size="24" transform="translate(305.056 536)">(1011)</text></g><g clip-path="url(#clip23)"><text font-family="Calibri,Calibri_MSFontService,sans-serif" font-weight="400" font-size="24" transform="translate(305.056 575)">(1100)</text></g><g clip-path="url(#clip24)"><text font-family="Calibri,Calibri_MSFontService,sans-serif" font-weight="400" font-size="24" transform="translate(305.056 614)">(1101)</text></g><g clip-path="url(#clip25)"><text font-family="Calibri,Calibri_MSFontService,sans-serif" font-weight="400" font-size="24" transform="translate(305.056 653)">(1110)</text></g><g clip-path="url(#clip26)"><text font-family="Calibri,Calibri_MSFontService,sans-serif" font-weight="400" font-size="24" transform="translate(305.056 692)">(1111)</text></g><path d="M639.8 119.532 734.337 119.532" stroke="#000000" stroke-width="1.33333" stroke-linejoin="round" stroke-miterlimit="10" fill="none" fill-rule="evenodd"/><path d="M639.8 158.466 734.337 158.466" stroke="#000000" stroke-width="1.33333" stroke-linejoin="round" stroke-miterlimit="10" fill="none" fill-rule="evenodd"/><path d="M639.8 197.399 734.337 197.399" stroke="#000000" stroke-width="1.33333" stroke-linejoin="round" stroke-miterlimit="10" fill="none" fill-rule="evenodd"/><path d="M639.8 236.332 734.337 236.332" stroke="#000000" stroke-width="1.33333" stroke-linejoin="round" stroke-miterlimit="10" fill="none" fill-rule="evenodd"/><path d="M639.8 275.266 734.337 275.266" stroke="#000000" stroke-width="1.33333" stroke-linejoin="round" stroke-miterlimit="10" fill="none" fill-rule="evenodd"/><path d="M639.8 314.199 734.337 314.199" stroke="#000000" stroke-width="1.33333" stroke-linejoin="round" stroke-miterlimit="10" fill="none" fill-rule="evenodd"/><path d="M639.8 353.132 734.337 353.132" stroke="#000000" stroke-width="1.33333" stroke-linejoin="round" stroke-miterlimit="10" fill="none" fill-rule="evenodd"/><path d="M639.8 392.065 734.337 392.065" stroke="#000000" stroke-width="1.33333" stroke-linejoin="round" stroke-miterlimit="10" fill="none" fill-rule="evenodd"/><path d="M639.8 430.999 734.337 430.999" stroke="#000000" stroke-width="1.33333" stroke-linejoin="round" stroke-miterlimit="10" fill="none" fill-rule="evenodd"/><path d="M639.8 469.932 734.337 469.932" stroke="#000000" stroke-width="1.33333" stroke-linejoin="round" stroke-miterlimit="10" fill="none" fill-rule="evenodd"/><path d="M639.8 508.866 734.337 508.866" stroke="#000000" stroke-width="1.33333" stroke-linejoin="round" stroke-miterlimit="10" fill="none" fill-rule="evenodd"/><path d="M639.8 547.799 734.337 547.799" stroke="#000000" stroke-width="1.33333" stroke-linejoin="round" stroke-miterlimit="10" fill="none" fill-rule="evenodd"/><path d="M639.8 586.732 734.337 586.732" stroke="#000000" stroke-width="1.33333" stroke-linejoin="round" stroke-miterlimit="10" fill="none" fill-rule="evenodd"/><path d="M639.8 625.666 734.337 625.666" stroke="#000000" stroke-width="1.33333" stroke-linejoin="round" stroke-miterlimit="10" fill="none" fill-rule="evenodd"/><path d="M639.8 664.599 734.337 664.599" stroke="#000000" stroke-width="1.33333" stroke-linejoin="round" stroke-miterlimit="10" fill="none" fill-rule="evenodd"/><path d="M640.467 79.9322 640.467 704.199" stroke="#000000" stroke-width="1.33333" stroke-linejoin="round" stroke-miterlimit="10" fill="none" fill-rule="evenodd"/><path d="M733.671 79.9322 733.671 704.199" stroke="#000000" stroke-width="1.33333" stroke-linejoin="round" stroke-miterlimit="10" fill="none" fill-rule="evenodd"/><path d="M639.8 80.5988 734.337 80.5988" stroke="#000000" stroke-width="1.33333" stroke-linejoin="round" stroke-miterlimit="10" fill="none" fill-rule="evenodd"/><path d="M639.8 703.532 734.337 703.532" stroke="#000000" stroke-width="1.33333" stroke-linejoin="round" stroke-miterlimit="10" fill="none" fill-rule="evenodd"/><g clip-path="url(#clip27)"><text font-family="Calibri,Calibri_MSFontService,sans-serif" font-weight="400" font-size="24" transform="translate(650.067 107)">(0000)</text></g><g clip-path="url(#clip28)"><text font-family="Calibri,Calibri_MSFontService,sans-serif" font-weight="400" font-size="24" transform="translate(650.067 146)">(0001)</text></g><g clip-path="url(#clip29)"><text font-family="Calibri,Calibri_MSFontService,sans-serif" font-weight="400" font-size="24" transform="translate(650.067 185)">(0010)</text></g><g clip-path="url(#clip30)"><text font-family="Calibri,Calibri_MSFontService,sans-serif" font-weight="400" font-size="24" transform="translate(650.067 224)">(0011)</text></g><g clip-path="url(#clip31)"><text font-family="Calibri,Calibri_MSFontService,sans-serif" font-weight="400" font-size="24" transform="translate(650.067 263)">(0100)</text></g><g clip-path="url(#clip32)"><text font-family="Calibri,Calibri_MSFontService,sans-serif" font-weight="400" font-size="24" transform="translate(650.067 302)">(0101)</text></g><g clip-path="url(#clip33)"><text font-family="Calibri,Calibri_MSFontService,sans-serif" font-weight="400" font-size="24" transform="translate(650.067 341)">(0110)</text></g><g clip-path="url(#clip34)"><text font-family="Calibri,Calibri_MSFontService,sans-serif" font-weight="400" font-size="24" transform="translate(650.067 380)">(0111)</text></g><g clip-path="url(#clip35)"><text font-family="Calibri,Calibri_MSFontService,sans-serif" font-weight="400" font-size="24" transform="translate(650.067 419)">(1000)</text></g><g clip-path="url(#clip36)"><text font-family="Calibri,Calibri_MSFontService,sans-serif" font-weight="400" font-size="24" transform="translate(650.067 458)">(1001)</text></g><g clip-path="url(#clip37)"><text font-family="Calibri,Calibri_MSFontService,sans-serif" font-weight="400" font-size="24" transform="translate(650.067 497)">(1010)</text></g><g clip-path="url(#clip38)"><text font-family="Calibri,Calibri_MSFontService,sans-serif" font-weight="400" font-size="24" transform="translate(650.067 536)">(1011)</text></g><g clip-path="url(#clip39)"><text font-family="Calibri,Calibri_MSFontService,sans-serif" font-weight="400" font-size="24" transform="translate(650.067 575)">(1100)</text></g><g clip-path="url(#clip40)"><text font-family="Calibri,Calibri_MSFontService,sans-serif" font-weight="400" font-size="24" transform="translate(650.067 614)">(1101)</text></g><g clip-path="url(#clip41)"><text font-family="Calibri,Calibri_MSFontService,sans-serif" font-weight="400" font-size="24" transform="translate(650.067 652)">(1110)</text></g><g clip-path="url(#clip42)"><text font-family="Calibri,Calibri_MSFontService,sans-serif" font-weight="400" font-size="24" transform="translate(650.067 691)">(1111)</text></g><path d="M846.155 233.886 900.855 233.886" stroke="#000000" stroke-width="1.33333" stroke-linejoin="round" stroke-miterlimit="10" fill="none" fill-rule="evenodd"/><path d="M846.155 272.82 900.855 272.82" stroke="#000000" stroke-width="1.33333" stroke-linejoin="round" stroke-miterlimit="10" fill="none" fill-rule="evenodd"/><path d="M846.155 311.753 900.855 311.753" stroke="#000000" stroke-width="1.33333" stroke-linejoin="round" stroke-miterlimit="10" fill="none" fill-rule="evenodd"/><path d="M846.155 350.686 900.855 350.686" stroke="#000000" stroke-width="1.33333" stroke-linejoin="round" stroke-miterlimit="10" fill="none" fill-rule="evenodd"/><path d="M846.155 389.62 900.855 389.62" stroke="#000000" stroke-width="1.33333" stroke-linejoin="round" stroke-miterlimit="10" fill="none" fill-rule="evenodd"/><path d="M846.155 428.553 900.855 428.553" stroke="#000000" stroke-width="1.33333" stroke-linejoin="round" stroke-miterlimit="10" fill="none" fill-rule="evenodd"/><path d="M846.155 467.486 900.855 467.486" stroke="#000000" stroke-width="1.33333" stroke-linejoin="round" stroke-miterlimit="10" fill="none" fill-rule="evenodd"/><path d="M846.155 506.42 900.855 506.42" stroke="#000000" stroke-width="1.33333" stroke-linejoin="round" stroke-miterlimit="10" fill="none" fill-rule="evenodd"/><path d="M846.155 545.353 900.855 545.353" stroke="#000000" stroke-width="1.33333" stroke-linejoin="round" stroke-miterlimit="10" fill="none" fill-rule="evenodd"/><path d="M846.155 584.286 900.855 584.286" stroke="#000000" stroke-width="1.33333" stroke-linejoin="round" stroke-miterlimit="10" fill="none" fill-rule="evenodd"/><path d="M846.822 194.286 846.822 623.886" stroke="#000000" stroke-width="1.33333" stroke-linejoin="round" stroke-miterlimit="10" fill="none" fill-rule="evenodd"/><path d="M900.189 194.286 900.189 623.886" stroke="#000000" stroke-width="1.33333" stroke-linejoin="round" stroke-miterlimit="10" fill="none" fill-rule="evenodd"/><path d="M846.155 194.953 900.855 194.953" stroke="#000000" stroke-width="1.33333" stroke-linejoin="round" stroke-miterlimit="10" fill="none" fill-rule="evenodd"/><path d="M846.155 623.22 900.855 623.22" stroke="#000000" stroke-width="1.33333" stroke-linejoin="round" stroke-miterlimit="10" fill="none" fill-rule="evenodd"/><text font-family="Calibri,Calibri_MSFontService,sans-serif" font-weight="400" font-size="24" transform="translate(867.422 222)">0<tspan font-size="24" x="0" y="39">1</tspan><tspan font-size="24" x="0" y="78">2</tspan><tspan font-size="24" x="0" y="117">3</tspan><tspan font-size="24" x="0" y="155">4</tspan><tspan font-size="24" x="0" y="194">5</tspan><tspan font-size="24" x="0" y="233">6</tspan><tspan font-size="24" x="0" y="272">7</tspan><tspan font-size="24" x="0" y="311">8</tspan><tspan font-size="24" x="0" y="350">9</tspan></text><g clip-path="url(#clip43)"><text font-family="Calibri,Calibri_MSFontService,sans-serif" font-weight="400" font-size="24" transform="translate(859.425 611)">err</text></g><path d="M0.479006-0.463678 108.619 111.251 107.661 112.178-0.479006 0.463678ZM110.086 107.975 112.777 116.505 104.338 113.539Z" transform="matrix(1 0 0 -1 183.5 217.005)"/><path d="M0.479006-0.463678 108.619 111.251 107.661 112.178-0.479006 0.463678ZM110.086 107.975 112.777 116.505 104.338 113.539Z" transform="matrix(1 0 0 -1 183.5 254.005)"/><path d="M0.479006-0.463678 108.619 111.251 107.661 112.178-0.479006 0.463678ZM110.086 107.975 112.777 116.505 104.338 113.539Z" transform="matrix(1 0 0 -1 183.5 294.005)"/><path d="M0.479006-0.463678 108.619 111.251 107.661 112.178-0.479006 0.463678ZM110.086 107.975 112.777 116.505 104.338 113.539Z" transform="matrix(1 0 0 -1 183.5 332.005)"/><path d="M0.479006-0.463678 108.619 111.251 107.661 112.178-0.479006 0.463678ZM110.086 107.975 112.777 116.505 104.338 113.539Z" transform="matrix(1 0 0 -1 183.5 376.005)"/><path d="M0.479006-0.463678 108.619 111.251 107.661 112.178-0.479006 0.463678ZM110.086 107.975 112.777 116.505 104.338 113.539Z" transform="matrix(1 0 0 -1 183.5 413.005)"/><path d="M0.479006-0.463678 108.619 111.251 107.661 112.178-0.479006 0.463678ZM110.086 107.975 112.777 116.505 104.338 113.539Z" transform="matrix(1 0 0 -1 183.5 453.005)"/><path d="M0.479006-0.463678 108.619 111.251 107.661 112.178-0.479006 0.463678ZM110.086 107.975 112.777 116.505 104.338 113.539Z" transform="matrix(1 0 0 -1 183.5 490.005)"/><path d="M0.479006-0.463678 108.619 111.251 107.661 112.178-0.479006 0.463678ZM110.086 107.975 112.777 116.505 104.338 113.539Z" transform="matrix(1 0 0 -1 183.5 527.005)"/><path d="M0.479006-0.463678 108.619 111.251 107.661 112.178-0.479006 0.463678ZM110.086 107.975 112.777 116.505 104.338 113.539Z" transform="matrix(1 0 0 -1 183.5 565.005)"/><path d="M389.5 100.833 633.707 100.833 633.707 102.167 389.5 102.167ZM632.373 97.5002 640.373 101.5 632.373 105.5Z" fill="#FF0000"/><path d="M389.112 99.2353 638.74 676.134 637.516 676.663 387.888 99.7648ZM641.268 673.584 640.774 682.514 633.926 676.761Z" fill="#FF0000"/><path d="M390.598 100.841 633.943 136.81 633.748 138.129 390.403 102.16ZM633.111 133.317 640.44 138.444 631.941 141.231Z" fill="#FF0000"/><path d="M389.694 100.862 634.19 175.274 633.801 176.549 389.306 102.138ZM633.885 171.697 640.373 177.853 631.555 179.35Z" fill="#FF0000" fill-opacity="0.301961"/><path d="M389.775 100.893 635.508 212.182 634.958 213.397 389.225 102.107ZM635.669 208.596 641.307 215.54 632.369 215.883Z" fill="#FF0000"/><path d="M389.854 100.935 636.014 255.401 635.305 256.531 389.146 102.065ZM636.656 251.869 641.307 259.509 632.404 258.645Z" fill="#FF0000" fill-opacity="0.301961"/><path d="M390.907 100.972 635.569 289.757 634.755 290.812 390.093 102.028ZM636.55 286.303 640.44 294.357 631.663 292.637Z" fill="#FF0000"/><path d="M390.951 101.009 635.984 326.298 635.081 327.279 390.049 101.991ZM637.258 322.942 640.44 331.301 631.844 328.831Z" fill="#FF0000"/><path d="M390.989 101.046 636.394 365.372 635.417 366.279 390.012 101.954ZM637.928 362.126 640.44 370.71 632.066 367.569Z" fill="#FF0000"/><path d="M391.017 100.079 637.678 402.673 636.645 403.516 389.983 100.921ZM639.419 399.533 641.373 408.261 633.218 404.588Z" fill="#FF0000"/><path d="M390.042 100.112 637.508 446.421 636.423 447.196 388.958 100.888ZM639.443 443.397 640.84 452.231 632.934 448.048Z" fill="#FF0000"/><path d="M390.06 100.138 638.717 485.128 637.597 485.851 388.94 100.862ZM640.793 482.198 641.773 491.089 634.073 486.539Z" fill="#FF0000"/><path d="M390.074 100.162 638.496 521.644 637.347 522.321 388.926 100.839ZM640.69 518.803 641.307 527.726 633.798 522.865Z" fill="#FF0000"/><path d="M390.087 101.183 638.262 561.089 637.088 561.722 388.913 101.817ZM640.561 558.331 640.84 567.271 633.521 562.13Z" fill="#FF0000"/><path d="M390.096 99.2022 639.389 598.298 638.197 598.893 388.904 99.798ZM641.777 595.618 641.773 604.562 634.62 599.193Z" fill="#FF0000"/><path d="M390.106 99.2217 639.594 642.193 638.383 642.75 388.894 99.7784ZM642.068 639.592 641.773 648.532 634.798 642.932Z" fill="#FF0000"/><rect x="416.5" y="334.5" width="37" height="87" stroke="#FFFFFF" stroke-linejoin="round" stroke-miterlimit="10" stroke-opacity="0.301961" fill="none"/><text fill="#FF0000" font-family="Calibri,Calibri_MSFontService,sans-serif" font-weight="400" font-size="64" transform="translate(425.613 399)">⁞</text><path d="M734.979 448.036 843.119 559.751 842.161 560.678 734.021 448.964ZM844.587 556.475 847.277 565.005 838.839 562.039Z"/><path d="M734.979 410.036 843.119 521.751 842.161 522.678 734.021 410.964ZM844.587 518.475 847.277 527.005 838.839 524.039Z"/><path d="M734.979 370.036 843.119 481.751 842.161 482.678 734.021 370.964ZM844.587 478.475 847.277 487.005 838.839 484.039Z"/><path d="M734.979 333.036 843.119 444.751 842.161 445.678 734.021 333.964ZM844.587 441.475 847.277 450.005 838.839 447.039Z"/><path d="M734.979 289.036 843.119 400.751 842.161 401.678 734.021 289.964ZM844.587 397.475 847.277 406.005 838.839 403.039Z"/><path d="M734.979 251.036 843.119 362.751 842.161 363.678 734.021 251.964ZM844.587 359.475 847.277 368.005 838.839 365.039Z"/><path d="M734.979 212.036 843.119 323.751 842.161 324.678 734.021 212.964ZM844.587 320.475 847.277 329.005 838.839 326.039Z"/><path d="M734.979 174.036 843.119 285.751 842.161 286.678 734.021 174.964ZM844.587 282.475 847.277 291.005 838.839 288.039Z"/><path d="M734.979 137.036 843.119 248.751 842.161 249.678 734.021 137.964ZM844.587 245.475 847.277 254.005 838.839 251.039Z"/><path d="M734.979 100.036 843.119 211.751 842.161 212.678 734.021 100.964ZM844.587 208.475 847.277 217.005 838.839 214.039Z"/><path d="M734.977 491.034 842.936 601.521 841.982 602.453 734.023 491.966ZM844.388 598.238 847.118 606.756 838.666 603.829Z" fill="#4472C4"/><path d="M734.871 530.946 841.947 602.533 841.206 603.641 734.13 532.054ZM842.692 599.02 847.119 606.792 838.245 605.671Z" fill="#4472C4"/><path d="M735.715 567.869 841.114 603.815 840.683 605.077 735.285 569.131ZM840.928 600.23 847.208 606.598 838.345 607.801Z" fill="#4472C4"/><path d="M734.506 605.833 840.058 606.832 840.045 608.165 734.494 607.167ZM838.756 603.486 846.718 607.562 838.681 611.486Z" fill="#4472C4"/><path d="M0.233706-0.62436 105.698 38.8524 105.231 40.1011-0.233706 0.62436ZM105.618 35.2632 111.708 41.8139 102.814 42.7555Z" fill="#4472C4" transform="matrix(1 0 0 -1 735.5 648.314)"/><path d="M0.388298-0.541913 108.098 76.6355 107.321 77.7193-0.388298 0.541913ZM108.956 73.1493 113.129 81.0604 104.296 79.6523Z" fill="#4472C4" transform="matrix(1 0 0 -1 733.5 687.56)"/><text font-family="Calibri,Calibri_MSFontService,sans-serif" font-weight="400" font-size="24" transform="translate(62.7065 158)">Message <tspan font-family="Times New Roman,Times New Roman_MSFontService,sans-serif" font-style="italic" font-size="24" x="91" y="0">M</tspan><tspan font-family="Times New Roman,Times New Roman_MSFontService,sans-serif" font-style="italic" font-size="16" x="111" y="5">i</tspan><tspan font-size="24" x="195.195" y="-132">Encoded Message </tspan><tspan font-family="Times New Roman,Times New Roman_MSFontService,sans-serif" font-style="italic" font-size="24" x="244.195" y="-102">E</tspan><tspan font-family="Times New Roman,Times New Roman_MSFontService,sans-serif" font-size="24" x="259.195" y="-102">(</tspan><tspan font-family="Times New Roman,Times New Roman_MSFontService,sans-serif" font-style="italic" font-size="24" x="267.195" y="-102">M</tspan><tspan font-family="Times New Roman,Times New Roman_MSFontService,sans-serif" font-style="italic" font-size="16" x="287.195" y="-97">i</tspan><tspan font-family="Times New Roman,Times New Roman_MSFontService,sans-serif" font-size="24" x="291.195" y="-102">)=</tspan><tspan font-family="Times New Roman,Times New Roman_MSFontService,sans-serif" font-style="italic" font-size="24" x="313.195" y="-102">E</tspan><tspan font-family="Times New Roman,Times New Roman_MSFontService,sans-serif" font-style="italic" font-size="16" x="328.195" y="-97">i</tspan><tspan font-size="24" x="126.064" y="522">Encoding</tspan><tspan font-size="24" x="694.096" y="554">Decoding</tspan></text><path d="M0 0C4.41828 0 8 0.596907 8 1.33323L8 46.6668C8 47.4031 11.5817 48 16 48 11.5817 48 8 48.5969 8 49.3332L8 94.6668C8 95.4031 4.41828 96 1.52776e-15 96" stroke="#000000" stroke-width="2.33333" stroke-miterlimit="8" fill="none" fill-rule="evenodd" transform="matrix(6.12323e-17 1 1 -6.12323e-17 749 668)"/><text fill="#FF0000" font-family="Calibri,Calibri_MSFontService,sans-serif" font-weight="400" font-size="24" transform="translate(501.639 675)">Noisy <tspan font-size="24" x="-37" y="29">Transmission</tspan></text><path d="M0 0C7.1797 0 13 0.969973 13 2.1665L13 74.3335C13 75.53 18.8203 76.5 26 76.5 18.8203 76.5 13 77.47 13 78.6665L13 150.833C13 152.03 7.1797 153 2.43487e-15 153" stroke="#FF0000" stroke-width="2.33333" stroke-miterlimit="8" fill="none" fill-rule="evenodd" transform="matrix(6.12323e-17 1 1 -6.12323e-17 446 627)"/><text font-family="Calibri,Calibri_MSFontService,sans-serif" font-weight="400" font-size="24" transform="translate(615.688 25)">Received code <tspan font-family="Times New Roman,Times New Roman_MSFontService,sans-serif" font-style="italic" font-size="24" x="60" y="30">R</tspan><tspan font-family="Times New Roman,Times New Roman_MSFontService,sans-serif" font-style="italic" font-size="16" x="75" y="35">j</tspan><tspan font-size="24" x="177.856" y="118">Decoded </tspan>message<tspan font-family="Times New Roman,Times New Roman_MSFontService,sans-serif" font-style="italic" font-size="24" x="226.856" y="147">D</tspan><tspan font-family="Times New Roman,Times New Roman_MSFontService,sans-serif" font-size="24" x="243.856" y="147">(</tspan><tspan font-family="Times New Roman,Times New Roman_MSFontService,sans-serif" font-style="italic" font-size="24" x="251.856" y="147">R</tspan><tspan font-family="Times New Roman,Times New Roman_MSFontService,sans-serif" font-style="italic" font-size="16" x="266.856" y="152">j</tspan><tspan font-family="Times New Roman,Times New Roman_MSFontService,sans-serif" font-size="24" x="271.856" y="147">)</tspan><tspan font-family="Times New Roman,Times New Roman_MSFontService,sans-serif" font-style="italic" font-size="24" x="279.856" y="147">=</tspan><tspan font-family="Times New Roman,Times New Roman_MSFontService,sans-serif" font-style="italic" font-size="24" x="295.856" y="147">D</tspan><tspan font-family="Times New Roman,Times New Roman_MSFontService,sans-serif" font-style="italic" font-size="16" x="312.856" y="152">j</tspan></text><path d="M0.558598-0.363885 108.461 165.277 107.344 166.005-0.558598 0.363885ZM110.526 162.34 111.541 171.227 103.823 166.707Z" fill="#FF0000" transform="matrix(1 0 0 -1 34.5001 386.727)"/><path d="M0.51147-0.427602 107.777 127.876 106.754 128.731-0.51147 0.427602ZM109.479 124.715 111.541 133.419 103.341 129.847Z" fill="#FF0000" transform="matrix(1 0 0 -1 34.5001 386.919)"/><path d="M0.429638-0.50976 106.873 89.2037 106.014 90.2232-0.429638 0.50976ZM108.002 85.7955 111.541 94.0098 102.846 91.9127Z" fill="#FF0000" transform="matrix(1 0 0 -1 34.5001 387.51)"/><path d="M0.300496-0.595102 105.891 52.7225 105.29 53.9127-0.300496 0.595102ZM106.203 49.1461 111.541 56.3226 102.597 56.2873Z" fill="#FF0000" transform="matrix(1 0 0 -1 34.5001 386.823)"/><path d="M0.0733834-0.662615 104.988 10.9565 104.842 12.2817-0.0733834 0.662615ZM104.03 7.49667 111.541 12.353 103.15 15.4481Z" fill="#FF0000" transform="matrix(1 0 0 -1 34.5001 386.853)"/><path d="M34.6484 386.85 139.69 410.822 139.393 412.122 34.3517 388.15ZM139.132 407.275 146.041 412.955 137.352 415.075Z" fill="#FF0000"/><path d="M34.8352 386.924 140.613 448.436 139.943 449.589 34.1649 388.076ZM141.136 444.884 146.041 452.364 137.115 451.8Z" fill="#FF0000"/><path d="M34.9513 387.009 141.584 485.048 140.682 486.03 34.0488 387.991ZM142.859 481.692 146.041 490.051 137.444 487.581Z" fill="#FF0000"/><path d="M35.02 387.083 142.387 520.859 141.348 521.694 33.9801 387.917ZM144.152 517.733 146.04 526.476 137.913 522.74Z" fill="#FF0000"/><path d="M35.0639 387.144 143.047 558.289 141.919 559.001 33.9362 387.856ZM145.155 555.383 146.041 564.284 138.389 559.652Z" fill="#FF0000"/><text fill="#FF0000" font-family="Calibri,Calibri_MSFontService,sans-serif" font-weight="400" font-size="24" transform="translate(26.8971 616)">Message <tspan font-size="24" x="0" y="29">selection</tspan><tspan font-size="24" x="0" y="58">(random)</tspan></text><path d="M0 0C4.69445 0 8.50005 0.634228 8.50005 1.41659L8.50005 46.5834C8.50005 47.3658 12.3057 48 17.0001 48 12.3057 48 8.50005 48.6342 8.50005 49.4166L8.50005 94.5834C8.50005 95.3658 4.69445 96 1.52776e-15 96" stroke="#FF0000" stroke-width="2.33333" stroke-miterlimit="8" fill="none" fill-rule="evenodd" transform="matrix(6.12323e-17 1 1 -6.12323e-17 33.9999 570)"/><path d="M0 0C6.35127 0 11.5 0.858119 11.5 1.91666L11.5 113.583C11.5 114.642 16.6487 115.5 23 115.5 16.6487 115.5 11.5 116.358 11.5 117.417L11.5 229.083C11.5 230.142 6.35127 231 1.83809e-15 231" stroke="#000000" stroke-width="1.33333" stroke-miterlimit="8" fill="none" fill-rule="evenodd" transform="matrix(1 -1.22465e-16 -1.22465e-16 -1 400.5 703.5)"/><text font-family="Calibri,Calibri_MSFontService,sans-serif" font-weight="400" font-size="24" transform="translate(429.296 592)">(unused)</text><path d="M0 0C4.41828 0 8 0.596907 8 1.33323L8 46.6668C8 47.4031 11.5817 48 16 48 11.5817 48 8 48.5969 8 49.3332L8 94.6668C8 95.4031 4.41828 96 1.52776e-15 96" stroke="#000000" stroke-width="2.33333" stroke-miterlimit="8" fill="none" fill-rule="evenodd" transform="matrix(6.12323e-17 1 1 -6.12323e-17 189 638)"/></g></svg>